<svg width="335" height="190" viewBox="0 0 335 190" fill="none" xmlns="http://www.w3.org/2000/svg">
<path d="M24.7102 25.3164L14.3 8.40234H19.3781L26.8391 21.2734L34.3391 8.40234H39.4563L29.0656 25.3164V36H24.7102V25.3164ZM46.1172 36.3711C44.2031 36.3711 42.4974 35.9154 41 35.0039C39.5156 34.0924 38.3633 32.862 37.543 31.3125C36.7227 29.75 36.3125 28.0443 36.3125 26.1953C36.3125 24.3594 36.7227 22.6732 37.543 21.1367C38.3633 19.5872 39.5156 18.3633 41 17.4648C42.4974 16.5664 44.2031 16.1172 46.1172 16.1172C48.0313 16.1172 49.7305 16.5664 51.2148 17.4648C52.7122 18.3633 53.8711 19.5872 54.6914 21.1367C55.5247 22.6732 55.9414 24.3594 55.9414 26.1953C55.9414 28.0443 55.5247 29.75 54.6914 31.3125C53.8711 32.862 52.7122 34.0924 51.2148 35.0039C49.7305 35.9154 48.0313 36.3711 46.1172 36.3711ZM46.1172 32.875C47.3411 32.875 48.3763 32.5755 49.2227 31.9766C50.069 31.3776 50.7005 30.5703 51.1172 29.5547C51.5339 28.5391 51.7422 27.4193 51.7422 26.1953C51.7422 24.9714 51.5339 23.8646 51.1172 22.875C50.7005 21.8724 50.069 21.0781 49.2227 20.4922C48.3763 19.9062 47.3411 19.6133 46.1172 19.6133C44.8932 19.6133 43.8581 19.9062 43.0117 20.4922C42.1784 21.0781 41.5534 21.8724 41.1367 22.875C40.7201 23.8646 40.5117 24.9714 40.5117 26.1953C40.5117 27.4323 40.7201 28.5586 41.1367 29.5742C41.5534 30.5768 42.1784 31.3776 43.0117 31.9766C43.8581 32.5755 44.8932 32.875 46.1172 32.875ZM65.8055 36.3711C64.23 36.3711 62.9214 36.0065 61.8797 35.2773C60.838 34.5482 60.0698 33.5846 59.575 32.3867C59.0932 31.1888 58.8458 29.8672 58.8328 28.4219V16.4883H62.8367V27.8164C62.8367 29.3008 63.1883 30.4792 63.8914 31.3516C64.6076 32.2109 65.6232 32.6406 66.9383 32.6406C68.4227 32.6406 69.5815 32.2044 70.4148 31.332C71.2612 30.4596 71.6844 29.1641 71.6844 27.4453V16.4883H75.6883V36H71.6844V33.3828C70.9943 34.3724 70.1219 35.1211 69.0672 35.6289C68.0255 36.1237 66.9383 36.3711 65.8055 36.3711ZM81.0406 16.4883H84.9664V20.043C85.2529 19.2096 85.6826 18.5 86.2555 17.9141C86.8284 17.3151 87.4794 16.8659 88.2086 16.5664C88.9508 16.2669 89.706 16.1172 90.4742 16.1172C91.1122 16.1172 91.7242 16.2214 92.3102 16.4297C92.9091 16.638 93.4234 16.9505 93.8531 17.3672L92.0172 20.6875C91.3401 20.2578 90.624 20.043 89.8688 20.043C89.0354 20.043 88.2411 20.2969 87.4859 20.8047C86.7307 21.3125 86.1122 22.1068 85.6305 23.1875C85.1617 24.2552 84.9273 25.5898 84.9273 27.1914V36H81.0406V16.4883ZM105.066 16.4883H108.952V19.2422C109.525 18.1615 110.287 17.3737 111.238 16.8789C112.188 16.3711 113.256 16.1172 114.441 16.1172C115.756 16.1172 116.934 16.4167 117.976 17.0156C119.017 17.6146 119.786 18.5586 120.28 19.8477C120.971 18.5846 121.863 17.6471 122.956 17.0352C124.05 16.4232 125.261 16.1172 126.589 16.1172C128.139 16.1172 129.428 16.4883 130.456 17.2305C131.498 17.9727 132.266 18.9688 132.761 20.2188C133.256 21.4557 133.503 22.8424 133.503 24.3789V36H129.46V24.8867C129.46 23.2982 129.174 22.0677 128.601 21.1953C128.041 20.3229 127.103 19.8867 125.788 19.8867C124.89 19.8867 124.102 20.1146 123.425 20.5703C122.748 21.013 122.227 21.625 121.863 22.4062C121.498 23.1745 121.316 24.0404 121.316 25.0039V36H117.273V24.5938C117.273 23.1354 116.986 21.9896 116.413 21.1562C115.84 20.3099 114.916 19.8867 113.64 19.8867C112.728 19.8867 111.928 20.1146 111.238 20.5703C110.56 21.013 110.04 21.625 109.675 22.4062C109.31 23.1745 109.128 24.0404 109.128 25.0039V36H105.085L105.066 16.4883ZM146.238 36.3711C144.168 36.3711 142.41 35.9219 140.965 35.0234C139.52 34.112 138.432 32.8945 137.703 31.3711C136.974 29.8477 136.609 28.168 136.609 26.332C136.609 24.5221 136.954 22.8424 137.645 21.293C138.348 19.7305 139.396 18.4805 140.789 17.543C142.195 16.5924 143.901 16.1172 145.906 16.1172C148.003 16.1172 149.708 16.599 151.023 17.5625C152.352 18.513 153.302 19.7174 153.875 21.1758C154.461 22.6341 154.754 24.138 154.754 25.6875C154.754 26.0521 154.734 26.4102 154.695 26.7617C154.669 27.1133 154.637 27.3607 154.598 27.5039H140.867C141.049 29.1445 141.583 30.4206 142.469 31.332C143.367 32.2435 144.63 32.6992 146.258 32.6992C147.26 32.6992 148.165 32.5299 148.973 32.1914C149.793 31.8529 150.568 31.2865 151.297 30.4922L154.07 32.9336C152.99 34.1055 151.811 34.9714 150.535 35.5312C149.272 36.0911 147.84 36.3711 146.238 36.3711ZM150.77 24.5742C150.796 24.1445 150.757 23.7344 150.652 23.3438C150.444 22.1979 149.923 21.2734 149.09 20.5703C148.257 19.8672 147.182 19.5156 145.867 19.5156C144.409 19.5156 143.263 19.9714 142.43 20.8828C141.609 21.7943 141.089 23.0247 140.867 24.5742H150.77ZM165.341 36.3711C163.596 36.3711 162.079 35.9154 160.79 35.0039C159.501 34.0924 158.518 32.8685 157.841 31.332C157.164 29.7826 156.825 28.0833 156.825 26.2344C156.825 24.3984 157.164 22.7122 157.841 21.1758C158.518 19.6263 159.494 18.3958 160.77 17.4844C162.046 16.5729 163.55 16.1172 165.282 16.1172C166.519 16.1172 167.671 16.3841 168.739 16.918C169.82 17.4518 170.679 18.2201 171.317 19.2227V8.40234H175.419V36H171.649L171.493 33.0508C170.842 34.1315 169.976 34.9583 168.895 35.5312C167.815 36.0911 166.63 36.3711 165.341 36.3711ZM166.317 32.6992C167.463 32.6992 168.433 32.4193 169.227 31.8594C170.035 31.2995 170.64 30.5378 171.044 29.5742C171.447 28.5977 171.649 27.4844 171.649 26.2344C171.649 24.9974 171.447 23.8971 171.044 22.9336C170.64 21.957 170.035 21.1888 169.227 20.6289C168.433 20.069 167.463 19.7891 166.317 19.7891C165.171 19.7891 164.188 20.0755 163.368 20.6484C162.561 21.2083 161.949 21.9766 161.532 22.9531C161.128 23.9167 160.927 25.0104 160.927 26.2344C160.927 27.4714 161.128 28.5781 161.532 29.5547C161.949 30.5312 162.561 31.2995 163.368 31.8594C164.188 32.4193 165.171 32.6992 166.317 32.6992ZM180.693 8.40234H184.912V12.6602H180.693V8.40234ZM180.791 16.4883H184.814V36H180.791V16.4883ZM197.686 36.3711C195.733 36.3711 194.06 35.9089 192.666 34.9844C191.273 34.0599 190.225 32.8294 189.522 31.293C188.819 29.7565 188.467 28.0833 188.467 26.2734C188.467 24.5026 188.812 22.8424 189.502 21.293C190.192 19.7435 191.228 18.4935 192.608 17.543C194.001 16.5924 195.681 16.1172 197.647 16.1172C199.561 16.1172 201.234 16.5924 202.666 17.543C204.099 18.4935 205.173 19.8932 205.889 21.7422L202.061 23.2266C201.722 22.1849 201.163 21.3516 200.381 20.7266C199.6 20.1016 198.689 19.7891 197.647 19.7891C196.501 19.7891 195.544 20.0951 194.776 20.707C194.021 21.306 193.461 22.1003 193.096 23.0898C192.745 24.0664 192.569 25.1276 192.569 26.2734C192.569 27.4323 192.745 28.5 193.096 29.4766C193.461 30.4531 194.021 31.2344 194.776 31.8203C195.544 32.4062 196.501 32.6992 197.647 32.6992C198.702 32.6992 199.613 32.3932 200.381 31.7812C201.163 31.1693 201.709 30.349 202.022 29.3203L205.694 30.707C205.056 32.4909 204.034 33.8841 202.627 34.8867C201.221 35.8763 199.574 36.3711 197.686 36.3711ZM215.909 16.1172C217.615 16.1172 219.086 16.4492 220.323 17.1133C221.56 17.7773 222.504 18.7148 223.155 19.9258C223.807 21.1237 224.132 22.5234 224.132 24.125V36H220.792L220.519 32.9531C219.894 34.0469 218.989 34.8932 217.804 35.4922C216.632 36.0781 215.402 36.3711 214.113 36.3711C212.771 36.3711 211.573 36.1237 210.519 35.6289C209.464 35.1341 208.637 34.418 208.038 33.4805C207.439 32.5299 207.14 31.4102 207.14 30.1211C207.14 28.1419 207.843 26.7096 209.249 25.8242C210.655 24.9388 212.583 24.4961 215.03 24.4961H220.46C220.434 23.3372 220.278 22.4128 219.991 21.7227C219.705 21.0195 219.236 20.4987 218.585 20.1602C217.947 19.8216 217.062 19.6523 215.929 19.6523C214.822 19.6523 213.852 19.9128 213.019 20.4336C212.198 20.9544 211.521 21.6576 210.988 22.543L207.902 20.3164C208.891 18.9492 210.024 17.9076 211.3 17.1914C212.589 16.4753 214.126 16.1172 215.909 16.1172ZM214.913 32.9336C215.929 32.9336 216.827 32.7122 217.609 32.2695C218.403 31.8268 219.041 31.2344 219.523 30.4922C220.004 29.75 220.317 28.9297 220.46 28.0312V27.4258H215.265C213.963 27.4258 212.973 27.6862 212.296 28.207C211.619 28.7148 211.28 29.3919 211.28 30.2383C211.28 31.0586 211.593 31.7161 212.218 32.2109C212.843 32.6927 213.741 32.9336 214.913 32.9336ZM232.707 36.3711C231.431 36.3711 230.454 36.0391 229.777 35.375C229.113 34.6979 228.781 33.5846 228.781 32.0352V8.40234H232.805V30.9414C232.805 31.5273 232.941 31.9766 233.215 32.2891C233.488 32.5885 233.938 32.7383 234.562 32.7383C234.888 32.7383 235.357 32.6927 235.969 32.6016L235.988 36C234.777 36.2474 233.684 36.3711 232.707 36.3711ZM255.111 36.3711C253.366 36.3711 251.849 35.9154 250.56 35.0039C249.271 34.0924 248.288 32.8685 247.611 31.332C246.934 29.7826 246.595 28.0833 246.595 26.2344C246.595 24.3984 246.934 22.7122 247.611 21.1758C248.288 19.6263 249.265 18.3958 250.541 17.4844C251.817 16.5729 253.321 16.1172 255.052 16.1172C256.289 16.1172 257.442 16.3841 258.509 16.918C259.59 17.4518 260.449 18.2201 261.088 19.2227V8.40234H265.189V36H261.42L261.263 33.0508C260.612 34.1315 259.746 34.9583 258.666 35.5312C257.585 36.0911 256.4 36.3711 255.111 36.3711ZM256.088 32.6992C257.233 32.6992 258.203 32.4193 258.998 31.8594C259.805 31.2995 260.41 30.5378 260.814 29.5742C261.218 28.5977 261.42 27.4844 261.42 26.2344C261.42 24.9974 261.218 23.8971 260.814 22.9336C260.41 21.957 259.805 21.1888 258.998 20.6289C258.203 20.069 257.233 19.7891 256.088 19.7891C254.942 19.7891 253.959 20.0755 253.138 20.6484C252.331 21.2083 251.719 21.9766 251.302 22.9531C250.899 23.9167 250.697 25.0104 250.697 26.2344C250.697 27.4714 250.899 28.5781 251.302 29.5547C251.719 30.5312 252.331 31.2995 253.138 31.8594C253.959 32.4193 254.942 32.6992 256.088 32.6992ZM277.436 16.1172C279.142 16.1172 280.613 16.4492 281.85 17.1133C283.087 17.7773 284.031 18.7148 284.682 19.9258C285.333 21.1237 285.659 22.5234 285.659 24.125V36H282.319L282.045 32.9531C281.42 34.0469 280.515 34.8932 279.33 35.4922C278.159 36.0781 276.928 36.3711 275.639 36.3711C274.298 36.3711 273.1 36.1237 272.045 35.6289C270.991 35.1341 270.164 34.418 269.565 33.4805C268.966 32.5299 268.666 31.4102 268.666 30.1211C268.666 28.1419 269.37 26.7096 270.776 25.8242C272.182 24.9388 274.109 24.4961 276.557 24.4961H281.987C281.961 23.3372 281.804 22.4128 281.518 21.7227C281.232 21.0195 280.763 20.4987 280.112 20.1602C279.474 19.8216 278.588 19.6523 277.455 19.6523C276.349 19.6523 275.379 19.9128 274.545 20.4336C273.725 20.9544 273.048 21.6576 272.514 22.543L269.428 20.3164C270.418 18.9492 271.551 17.9076 272.827 17.1914C274.116 16.4753 275.652 16.1172 277.436 16.1172ZM276.44 32.9336C277.455 32.9336 278.354 32.7122 279.135 32.2695C279.929 31.8268 280.567 31.2344 281.049 30.4922C281.531 29.75 281.843 28.9297 281.987 28.0312V27.4258H276.791C275.489 27.4258 274.5 27.6862 273.823 28.207C273.146 28.7148 272.807 29.3919 272.807 30.2383C272.807 31.0586 273.12 31.7161 273.745 32.2109C274.37 32.6927 275.268 32.9336 276.44 32.9336ZM296.87 36.3711C295.034 36.3711 293.602 35.8568 292.573 34.8281C291.558 33.7995 291.05 32.3802 291.05 30.5703V19.8867H287.847V16.4883H291.109V11.3711L295.073 8.48047V16.4883H300.152V19.8867H295.073V29.8867C295.073 30.9284 295.288 31.6771 295.718 32.1328C296.148 32.5755 296.766 32.7969 297.573 32.7969C298.355 32.7969 299.208 32.5885 300.132 32.1719L300.152 35.8242C299.761 35.9674 299.266 36.0911 298.667 36.1953C298.068 36.3125 297.469 36.3711 296.87 36.3711ZM311.109 16.1172C312.815 16.1172 314.286 16.4492 315.523 17.1133C316.76 17.7773 317.704 18.7148 318.355 19.9258C319.007 21.1237 319.332 22.5234 319.332 24.125V36H315.992L315.719 32.9531C315.094 34.0469 314.189 34.8932 313.004 35.4922C311.832 36.0781 310.602 36.3711 309.312 36.3711C307.971 36.3711 306.773 36.1237 305.719 35.6289C304.664 35.1341 303.837 34.418 303.238 33.4805C302.639 32.5299 302.34 31.4102 302.34 30.1211C302.34 28.1419 303.043 26.7096 304.449 25.8242C305.855 24.9388 307.783 24.4961 310.23 24.4961H315.66C315.634 23.3372 315.478 22.4128 315.191 21.7227C314.905 21.0195 314.436 20.4987 313.785 20.1602C313.147 19.8216 312.262 19.6523 311.129 19.6523C310.022 19.6523 309.052 19.9128 308.219 20.4336C307.398 20.9544 306.721 21.6576 306.188 22.543L303.102 20.3164C304.091 18.9492 305.224 17.9076 306.5 17.1914C307.789 16.4753 309.326 16.1172 311.109 16.1172ZM310.113 32.9336C311.129 32.9336 312.027 32.7122 312.809 32.2695C313.603 31.8268 314.241 31.2344 314.723 30.4922C315.204 29.75 315.517 28.9297 315.66 28.0312V27.4258H310.465C309.163 27.4258 308.173 27.6862 307.496 28.207C306.819 28.7148 306.48 29.3919 306.48 30.2383C306.48 31.0586 306.793 31.7161 307.418 32.2109C308.043 32.6927 308.941 32.9336 310.113 32.9336ZM19.8469 56.4023H24.0656V60.6602H19.8469V56.4023ZM19.9445 64.4883H23.968V84H19.9445V64.4883ZM35.1406 84.3711C33.8385 84.3711 32.6276 84.1367 31.5078 83.668C30.401 83.1862 29.457 82.5417 28.6758 81.7344C27.9076 80.9141 27.3607 80.0026 27.0352 79L30.2773 77.5742C30.6289 78.5378 31.1823 79.3516 31.9375 80.0156C32.6927 80.6667 33.6953 80.9922 34.9453 80.9922C35.7266 80.9922 36.3841 80.862 36.918 80.6016C37.4648 80.3411 37.875 80.0026 38.1484 79.5859C38.4219 79.1693 38.5586 78.7266 38.5586 78.2578C38.5586 77.724 38.3828 77.2943 38.0313 76.9688C37.6797 76.6302 37.237 76.3633 36.7031 76.168C36.1693 75.9727 35.4271 75.7513 34.4766 75.5039C33.1615 75.1654 32.0872 74.8268 31.2539 74.4883C30.4336 74.1367 29.724 73.6029 29.125 72.8867C28.5391 72.1576 28.2461 71.181 28.2461 69.957C28.2461 68.707 28.5651 67.6458 29.2031 66.7734C29.8411 65.888 30.694 65.224 31.7617 64.7812C32.8294 64.3385 34.0078 64.1172 35.2969 64.1172C36.9115 64.1172 38.3372 64.4818 39.5742 65.2109C40.8112 65.9401 41.7943 66.9688 42.5234 68.2969L39.3984 69.9961C38.4219 68.2122 37.0091 67.3203 35.1602 67.3203C34.2357 67.3203 33.4935 67.5221 32.9336 67.9258C32.3867 68.3164 32.1133 68.8177 32.1133 69.4297C32.1133 69.8854 32.276 70.2695 32.6016 70.582C32.9401 70.8815 33.3633 71.1289 33.8711 71.3242C34.3789 71.5065 35.0755 71.7214 35.9609 71.9688C37.3281 72.3464 38.4479 72.7305 39.3203 73.1211C40.1927 73.4987 40.9414 74.0846 41.5664 74.8789C42.2044 75.6732 42.5234 76.7344 42.5234 78.0625C42.5234 79.4427 42.1784 80.6081 41.4883 81.5586C40.7982 82.4961 39.8932 83.1992 38.7734 83.668C37.6536 84.1367 36.4427 84.3711 35.1406 84.3711ZM62.4273 64.1172C64.1331 64.1172 65.6044 64.4492 66.8414 65.1133C68.0784 65.7773 69.0224 66.7148 69.6734 67.9258C70.3245 69.1237 70.65 70.5234 70.65 72.125V84H67.3102L67.0367 80.9531C66.4117 82.0469 65.5068 82.8932 64.3219 83.4922C63.15 84.0781 61.9195 84.3711 60.6305 84.3711C59.2893 84.3711 58.0914 84.1237 57.0367 83.6289C55.982 83.1341 55.1552 82.418 54.5563 81.4805C53.9573 80.5299 53.6578 79.4102 53.6578 78.1211C53.6578 76.1419 54.3609 74.7096 55.7672 73.8242C57.1734 72.9388 59.1005 72.4961 61.5484 72.4961H66.9781C66.9521 71.3372 66.7958 70.4128 66.5094 69.7227C66.2229 69.0195 65.7542 68.4987 65.1031 68.1602C64.4651 67.8216 63.5797 67.6523 62.4469 67.6523C61.3401 67.6523 60.3701 67.9128 59.5367 68.4336C58.7164 68.9544 58.0393 69.6576 57.5055 70.543L54.4195 68.3164C55.4091 66.9492 56.5419 65.9076 57.818 65.1914C59.107 64.4753 60.6435 64.1172 62.4273 64.1172ZM61.4313 80.9336C62.4469 80.9336 63.3453 80.7122 64.1266 80.2695C64.9208 79.8268 65.5589 79.2344 66.0406 78.4922C66.5224 77.75 66.8349 76.9297 66.9781 76.0312V75.4258H61.7828C60.4807 75.4258 59.4911 75.6862 58.8141 76.207C58.137 76.7148 57.7984 77.3919 57.7984 78.2383C57.7984 79.0586 58.1109 79.7161 58.7359 80.2109C59.3609 80.6927 60.2594 80.9336 61.4313 80.9336ZM79.225 84.3711C77.949 84.3711 76.9724 84.0391 76.2953 83.375C75.6313 82.6979 75.2992 81.5846 75.2992 80.0352V56.4023H79.3227V78.9414C79.3227 79.5273 79.4594 79.9766 79.7328 80.2891C80.0063 80.5885 80.4555 80.7383 81.0805 80.7383C81.406 80.7383 81.8747 80.6927 82.4867 80.6016L82.5063 84C81.2953 84.2474 80.2016 84.3711 79.225 84.3711ZM83.093 64.4883H87.3898L91.0422 77.8477L95.2414 64.4883H98.7375L102.937 77.8281L106.609 64.4883H110.925L104.988 84H101.316L96.9992 70.1523L92.6438 84H88.9914L83.093 64.4883ZM120.535 64.1172C122.241 64.1172 123.712 64.4492 124.949 65.1133C126.186 65.7773 127.13 66.7148 127.781 67.9258C128.432 69.1237 128.758 70.5234 128.758 72.125V84H125.418L125.145 80.9531C124.52 82.0469 123.615 82.8932 122.43 83.4922C121.258 84.0781 120.027 84.3711 118.738 84.3711C117.397 84.3711 116.199 84.1237 115.145 83.6289C114.09 83.1341 113.263 82.418 112.664 81.4805C112.065 80.5299 111.766 79.4102 111.766 78.1211C111.766 76.1419 112.469 74.7096 113.875 73.8242C115.281 72.9388 117.208 72.4961 119.656 72.4961H125.086C125.06 71.3372 124.904 70.4128 124.617 69.7227C124.331 69.0195 123.862 68.4987 123.211 68.1602C122.573 67.8216 121.688 67.6523 120.555 67.6523C119.448 67.6523 118.478 67.9128 117.645 68.4336C116.824 68.9544 116.147 69.6576 115.613 70.543L112.527 68.3164C113.517 66.9492 114.65 65.9076 115.926 65.1914C117.215 64.4753 118.751 64.1172 120.535 64.1172ZM119.539 80.9336C120.555 80.9336 121.453 80.7122 122.234 80.2695C123.029 79.8268 123.667 79.2344 124.148 78.4922C124.63 77.75 124.943 76.9297 125.086 76.0312V75.4258H119.891C118.589 75.4258 117.599 75.6862 116.922 76.207C116.245 76.7148 115.906 77.3919 115.906 78.2383C115.906 79.0586 116.219 79.7161 116.844 80.2109C117.469 80.6927 118.367 80.9336 119.539 80.9336ZM137.919 83.5703L130.067 64.4883H134.501L140.067 78.9414L145.399 64.4883H149.833L138.817 92.3789H134.403L137.919 83.5703ZM157.783 84.3711C156.481 84.3711 155.27 84.1367 154.15 83.668C153.043 83.1862 152.099 82.5417 151.318 81.7344C150.55 80.9141 150.003 80.0026 149.677 79L152.92 77.5742C153.271 78.5378 153.824 79.3516 154.58 80.0156C155.335 80.6667 156.338 80.9922 157.588 80.9922C158.369 80.9922 159.026 80.862 159.56 80.6016C160.107 80.3411 160.517 80.0026 160.791 79.5859C161.064 79.1693 161.201 78.7266 161.201 78.2578C161.201 77.724 161.025 77.2943 160.673 76.9688C160.322 76.6302 159.879 76.3633 159.345 76.168C158.811 75.9727 158.069 75.7513 157.119 75.5039C155.804 75.1654 154.729 74.8268 153.896 74.4883C153.076 74.1367 152.366 73.6029 151.767 72.8867C151.181 72.1576 150.888 71.181 150.888 69.957C150.888 68.707 151.207 67.6458 151.845 66.7734C152.483 65.888 153.336 65.224 154.404 64.7812C155.472 64.3385 156.65 64.1172 157.939 64.1172C159.554 64.1172 160.979 64.4818 162.216 65.2109C163.453 65.9401 164.436 66.9688 165.166 68.2969L162.041 69.9961C161.064 68.2122 159.651 67.3203 157.802 67.3203C156.878 67.3203 156.136 67.5221 155.576 67.9258C155.029 68.3164 154.755 68.8177 154.755 69.4297C154.755 69.8854 154.918 70.2695 155.244 70.582C155.582 70.8815 156.005 71.1289 156.513 71.3242C157.021 71.5065 157.718 71.7214 158.603 71.9688C159.97 72.3464 161.09 72.7305 161.963 73.1211C162.835 73.4987 163.584 74.0846 164.209 74.8789C164.847 75.6732 165.166 76.7344 165.166 78.0625C165.166 79.4427 164.821 80.6081 164.13 81.5586C163.44 82.4961 162.535 83.1992 161.416 83.668C160.296 84.1367 159.085 84.3711 157.783 84.3711ZM175.499 64.4883H179.796L183.448 77.8477L187.648 64.4883H191.144L195.343 77.8281L199.015 64.4883H203.331L197.394 84H193.722L189.405 70.1523L185.05 84H181.398L175.499 64.4883ZM205.969 56.4023H210.188V60.6602H205.969V56.4023ZM206.066 64.4883H210.09V84H206.066V64.4883ZM221.985 84.3711C220.149 84.3711 218.717 83.8568 217.688 82.8281C216.673 81.7995 216.165 80.3802 216.165 78.5703V67.8867H212.962V64.4883H216.223V59.3711L220.188 56.4805V64.4883H225.266V67.8867H220.188V77.8867C220.188 78.9284 220.403 79.6771 220.833 80.1328C221.262 80.5755 221.881 80.7969 222.688 80.7969C223.47 80.7969 224.322 80.5885 225.247 80.1719L225.266 83.8242C224.876 83.9674 224.381 84.0911 223.782 84.1953C223.183 84.3125 222.584 84.3711 221.985 84.3711ZM228.334 56.4023H232.435V67.1055C233.125 66.1159 233.978 65.3737 234.994 64.8789C236.009 64.3711 237.084 64.1172 238.216 64.1172C239.779 64.1172 241.088 64.4818 242.142 65.2109C243.21 65.9401 243.998 66.9036 244.505 68.1016C245.013 69.2995 245.274 70.6211 245.287 72.0664V84H241.185V72.6719C241.185 71.1484 240.886 69.957 240.287 69.0977C239.688 68.2253 238.672 67.7891 237.24 67.7891C236.211 67.7891 235.332 68.043 234.603 68.5508C233.887 69.0586 233.347 69.7617 232.982 70.6602C232.617 71.5456 232.435 72.5612 232.435 73.707V84H228.334V56.4023ZM264.058 83.5703L256.206 64.4883H260.64L266.206 78.9414L271.538 64.4883H275.972L264.956 92.3789H260.542L264.058 83.5703ZM285.465 84.3711C283.551 84.3711 281.845 83.9154 280.348 83.0039C278.863 82.0924 277.711 80.862 276.891 79.3125C276.07 77.75 275.66 76.0443 275.66 74.1953C275.66 72.3594 276.07 70.6732 276.891 69.1367C277.711 67.5872 278.863 66.3633 280.348 65.4648C281.845 64.5664 283.551 64.1172 285.465 64.1172C287.379 64.1172 289.078 64.5664 290.562 65.4648C292.06 66.3633 293.219 67.5872 294.039 69.1367C294.872 70.6732 295.289 72.3594 295.289 74.1953C295.289 76.0443 294.872 77.75 294.039 79.3125C293.219 80.862 292.06 82.0924 290.562 83.0039C289.078 83.9154 287.379 84.3711 285.465 84.3711ZM285.465 80.875C286.689 80.875 287.724 80.5755 288.57 79.9766C289.417 79.3776 290.048 78.5703 290.465 77.5547C290.882 76.5391 291.09 75.4193 291.09 74.1953C291.09 72.9714 290.882 71.8646 290.465 70.875C290.048 69.8724 289.417 69.0781 288.57 68.4922C287.724 67.9062 286.689 67.6133 285.465 67.6133C284.241 67.6133 283.206 67.9062 282.359 68.4922C281.526 69.0781 280.901 69.8724 280.484 70.875C280.068 71.8646 279.859 72.9714 279.859 74.1953C279.859 75.4323 280.068 76.5586 280.484 77.5742C280.901 78.5768 281.526 79.3776 282.359 79.9766C283.206 80.5755 284.241 80.875 285.465 80.875ZM305.153 84.3711C303.578 84.3711 302.269 84.0065 301.227 83.2773C300.186 82.5482 299.417 81.5846 298.923 80.3867C298.441 79.1888 298.194 77.8672 298.18 76.4219V64.4883H302.184V75.8164C302.184 77.3008 302.536 78.4792 303.239 79.3516C303.955 80.2109 304.971 80.6406 306.286 80.6406C307.77 80.6406 308.929 80.2044 309.763 79.332C310.609 78.4596 311.032 77.1641 311.032 75.4453V64.4883H315.036V84H311.032V81.3828C310.342 82.3724 309.47 83.1211 308.415 83.6289C307.373 84.1237 306.286 84.3711 305.153 84.3711Z" fill="black"/>
<path d="M19.7618 117.581V130H18.1622L12.3175 120.095V130H10.8234V117.581H12.4054L18.2677 127.46V117.581H19.7618ZM25.5893 130.149C24.9038 130.149 24.3296 129.997 23.8667 129.692C23.4097 129.382 23.0698 128.966 22.8472 128.444C22.6245 127.917 22.5073 127.328 22.4956 126.678V121.22H23.9722V126.414C23.9722 127.152 24.145 127.729 24.4907 128.146C24.8364 128.562 25.3374 128.77 25.9936 128.77C26.7085 128.77 27.2681 128.559 27.6723 128.137C28.0825 127.709 28.2876 127.091 28.2876 126.282V121.22H29.7641V130H28.2876V128.664C28.0005 129.15 27.6167 129.52 27.1362 129.771C26.6557 130.023 26.1401 130.149 25.5893 130.149ZM32.3573 121.22H33.8426V122.556C34.1356 122.069 34.5194 121.7 34.994 121.448C35.4686 121.196 35.9813 121.07 36.5321 121.07C37.2176 121.07 37.7889 121.226 38.2459 121.536C38.7088 121.841 39.0516 122.254 39.2743 122.775C39.5028 123.297 39.6229 123.883 39.6346 124.533V130H38.1493V124.806C38.1493 124.067 37.9764 123.49 37.6307 123.074C37.285 122.658 36.784 122.45 36.1278 122.45C35.4129 122.45 34.8534 122.664 34.4491 123.092C34.0448 123.514 33.8426 124.129 33.8426 124.938V130H32.3573V121.22ZM45.3127 130.149C44.4631 130.149 43.7336 129.947 43.1242 129.543C42.5148 129.133 42.052 128.585 41.7355 127.899C41.4191 127.208 41.2609 126.449 41.2609 125.623C41.2609 124.826 41.4133 124.082 41.718 123.391C42.0227 122.693 42.4768 122.134 43.0803 121.712C43.6897 121.284 44.4279 121.07 45.2951 121.07C46.1272 121.07 46.8566 121.281 47.4836 121.703C48.1164 122.119 48.5939 122.731 48.9162 123.54L47.5012 124.094C47.3254 123.578 47.0412 123.171 46.6486 122.872C46.2619 122.573 45.8107 122.424 45.2951 122.424C44.7385 122.424 44.2697 122.573 43.8889 122.872C43.508 123.165 43.2268 123.555 43.0451 124.041C42.8635 124.527 42.7727 125.055 42.7727 125.623C42.7727 126.197 42.8635 126.725 43.0451 127.205C43.2268 127.686 43.5051 128.072 43.8801 128.365C44.2609 128.652 44.7326 128.796 45.2951 128.796C45.8166 128.796 46.2707 128.649 46.6574 128.356C47.0441 128.058 47.3166 127.656 47.4748 127.152L48.8283 127.662C48.5529 128.447 48.1047 129.06 47.4836 129.499C46.8684 129.933 46.1447 130.149 45.3127 130.149ZM58.2245 130.149C57.3866 130.149 56.6396 129.947 55.9833 129.543C55.3271 129.133 54.8144 128.582 54.4452 127.891C54.082 127.193 53.9003 126.426 53.9003 125.588C53.9003 124.756 54.082 123.997 54.4452 123.312C54.8144 122.62 55.3271 122.075 55.9833 121.677C56.6396 121.272 57.3866 121.07 58.2245 121.07C59.0624 121.07 59.8095 121.272 60.4657 121.677C61.1279 122.075 61.6435 122.62 62.0126 123.312C62.3818 124.003 62.5663 124.762 62.5663 125.588C62.5663 126.426 62.3818 127.193 62.0126 127.891C61.6435 128.582 61.1279 129.133 60.4657 129.543C59.8095 129.947 59.0624 130.149 58.2245 130.149ZM58.2245 128.857C58.8105 128.857 59.3144 128.711 59.7363 128.418C60.1581 128.125 60.4775 127.732 60.6943 127.24C60.9111 126.742 61.0195 126.191 61.0195 125.588C61.0195 124.99 60.9111 124.448 60.6943 123.962C60.4775 123.47 60.1581 123.08 59.7363 122.793C59.3144 122.506 58.8105 122.362 58.2245 122.362C57.6445 122.362 57.1435 122.506 56.7216 122.793C56.3056 123.074 55.9892 123.461 55.7724 123.953C55.5556 124.439 55.4472 124.984 55.4472 125.588C55.4472 126.191 55.5556 126.742 55.7724 127.24C55.9892 127.738 56.3056 128.134 56.7216 128.427C57.1435 128.714 57.6445 128.857 58.2245 128.857ZM64.386 121.22H65.8362V122.942C65.971 122.538 66.1761 122.195 66.4515 121.914C66.7268 121.633 67.0345 121.422 67.3743 121.281C67.72 121.141 68.0716 121.07 68.429 121.07C68.6985 121.07 68.9593 121.111 69.2112 121.193C69.4632 121.27 69.6858 121.39 69.8792 121.554L69.1936 122.784C68.8772 122.608 68.5491 122.521 68.2093 122.521C67.8108 122.521 67.43 122.635 67.0667 122.863C66.7034 123.092 66.4046 123.452 66.1702 123.944C65.9417 124.431 65.8274 125.04 65.8274 125.772V130H64.386V121.22ZM73.8258 130.149C72.9762 130.149 72.2467 129.947 71.6373 129.543C71.028 129.133 70.5651 128.585 70.2487 127.899C69.9323 127.208 69.7741 126.449 69.7741 125.623C69.7741 124.826 69.9264 124.082 70.2311 123.391C70.5358 122.693 70.9899 122.134 71.5934 121.712C72.2028 121.284 72.9411 121.07 73.8082 121.07C74.6403 121.07 75.3698 121.281 75.9967 121.703C76.6295 122.119 77.1071 122.731 77.4293 123.54L76.0143 124.094C75.8385 123.578 75.5543 123.171 75.1618 122.872C74.775 122.573 74.3239 122.424 73.8082 122.424C73.2516 122.424 72.7829 122.573 72.402 122.872C72.0211 123.165 71.7399 123.555 71.5582 124.041C71.3766 124.527 71.2858 125.055 71.2858 125.623C71.2858 126.197 71.3766 126.725 71.5582 127.205C71.7399 127.686 72.0182 128.072 72.3932 128.365C72.7741 128.652 73.2457 128.796 73.8082 128.796C74.3297 128.796 74.7838 128.649 75.1705 128.356C75.5573 128.058 75.8297 127.656 75.9879 127.152L77.3414 127.662C77.0661 128.447 76.6178 129.06 75.9967 129.499C75.3815 129.933 74.6579 130.149 73.8258 130.149ZM79.0117 117.581H80.5674V119.444H79.0117V117.581ZM79.0469 121.22H80.5322V130H79.0469V121.22ZM89.8933 130.149C89.3132 130.149 88.7771 130.047 88.2849 129.842C87.7927 129.637 87.3738 129.355 87.0281 128.998C86.6824 128.635 86.4363 128.23 86.2898 127.785L87.4939 127.258C87.6638 127.727 87.945 128.119 88.3376 128.436C88.7302 128.746 89.2253 128.901 89.823 128.901C90.2156 128.901 90.5495 128.84 90.8249 128.717C91.1003 128.588 91.3054 128.415 91.4402 128.198C91.5808 127.981 91.6511 127.741 91.6511 127.478C91.6511 127.185 91.5603 126.95 91.3786 126.774C91.2029 126.593 90.9802 126.452 90.7107 126.353C90.4411 126.253 90.0691 126.145 89.5945 126.027C88.9909 125.875 88.5017 125.726 88.1267 125.579C87.7575 125.427 87.4411 125.192 87.1775 124.876C86.9138 124.554 86.782 124.123 86.782 123.584C86.782 123.051 86.9197 122.597 87.195 122.222C87.4704 121.841 87.8425 121.554 88.3113 121.36C88.78 121.167 89.3015 121.07 89.8757 121.07C90.5788 121.07 91.1999 121.231 91.739 121.554C92.2839 121.876 92.7175 122.333 93.0398 122.925L91.8884 123.549C91.6775 123.162 91.3991 122.852 91.0534 122.617C90.7136 122.377 90.3034 122.257 89.823 122.257C89.3308 122.257 88.9382 122.362 88.6452 122.573C88.3523 122.784 88.2058 123.057 88.2058 123.391C88.2058 123.648 88.2907 123.859 88.4607 124.023C88.6306 124.182 88.8445 124.311 89.1023 124.41C89.3601 124.504 89.7116 124.609 90.157 124.727C90.7839 124.896 91.2937 125.066 91.6863 125.236C92.0788 125.4 92.4157 125.658 92.697 126.01C92.9782 126.355 93.1189 126.821 93.1189 127.407C93.1189 127.999 92.9724 128.503 92.6794 128.919C92.3865 129.329 91.9939 129.637 91.5017 129.842C91.0154 130.047 90.4792 130.149 89.8933 130.149ZM98.4454 130.149C97.5489 130.149 96.7843 129.95 96.1515 129.552C95.5186 129.153 95.0411 128.614 94.7188 127.935C94.3966 127.249 94.2354 126.487 94.2354 125.649C94.2354 124.823 94.3907 124.062 94.7013 123.364C95.0118 122.667 95.4718 122.11 96.0811 121.694C96.6964 121.278 97.4347 121.07 98.296 121.07C99.2159 121.07 99.9659 121.281 100.546 121.703C101.132 122.125 101.554 122.655 101.812 123.294C102.069 123.927 102.198 124.577 102.198 125.245C102.198 125.403 102.19 125.562 102.172 125.72C102.16 125.872 102.146 125.983 102.128 126.054H95.8087C95.8673 126.915 96.1192 127.589 96.5645 128.075C97.0157 128.556 97.6456 128.796 98.4542 128.796C98.9464 128.796 99.3829 128.717 99.7638 128.559C100.145 128.395 100.514 128.122 100.871 127.741L101.908 128.646C101.422 129.168 100.9 129.549 100.344 129.789C99.7931 130.029 99.1602 130.149 98.4454 130.149ZM100.722 124.964C100.722 124.712 100.71 124.527 100.687 124.41C100.634 124.029 100.508 123.684 100.309 123.373C100.115 123.057 99.8458 122.805 99.5001 122.617C99.1602 122.424 98.7559 122.327 98.2872 122.327C97.5665 122.327 96.9952 122.567 96.5733 123.048C96.1515 123.522 95.8966 124.161 95.8087 124.964H100.722ZM107.182 130.149C106.403 130.149 105.72 129.947 105.134 129.543C104.548 129.133 104.097 128.582 103.781 127.891C103.464 127.199 103.306 126.438 103.306 125.605C103.306 124.779 103.461 124.021 103.772 123.329C104.088 122.638 104.537 122.09 105.117 121.686C105.703 121.275 106.382 121.07 107.156 121.07C107.783 121.07 108.357 121.223 108.878 121.527C109.406 121.832 109.81 122.257 110.091 122.802V117.581H111.603V130H110.214L110.153 128.339C109.872 128.913 109.464 129.358 108.931 129.675C108.404 129.991 107.821 130.149 107.182 130.149ZM107.534 128.796C108.09 128.796 108.571 128.658 108.975 128.383C109.379 128.107 109.687 127.729 109.898 127.249C110.109 126.763 110.214 126.215 110.214 125.605C110.214 125.002 110.109 124.46 109.898 123.979C109.687 123.493 109.379 123.112 108.975 122.837C108.571 122.562 108.09 122.424 107.534 122.424C106.977 122.424 106.494 122.564 106.083 122.846C105.673 123.121 105.36 123.502 105.143 123.988C104.926 124.469 104.818 125.008 104.818 125.605C104.818 126.209 104.926 126.754 105.143 127.24C105.36 127.721 105.673 128.102 106.083 128.383C106.494 128.658 106.977 128.796 107.534 128.796ZM120.99 130.149C120.41 130.149 119.874 130.047 119.382 129.842C118.89 129.637 118.471 129.355 118.125 128.998C117.779 128.635 117.533 128.23 117.387 127.785L118.591 127.258C118.761 127.727 119.042 128.119 119.435 128.436C119.827 128.746 120.322 128.901 120.92 128.901C121.313 128.901 121.647 128.84 121.922 128.717C122.197 128.588 122.403 128.415 122.537 128.198C122.678 127.981 122.748 127.741 122.748 127.478C122.748 127.185 122.657 126.95 122.476 126.774C122.3 126.593 122.077 126.452 121.808 126.353C121.538 126.253 121.166 126.145 120.692 126.027C120.088 125.875 119.599 125.726 119.224 125.579C118.855 125.427 118.538 125.192 118.275 124.876C118.011 124.554 117.879 124.123 117.879 123.584C117.879 123.051 118.017 122.597 118.292 122.222C118.568 121.841 118.94 121.554 119.408 121.36C119.877 121.167 120.399 121.07 120.973 121.07C121.676 121.07 122.297 121.231 122.836 121.554C123.381 121.876 123.815 122.333 124.137 122.925L122.986 123.549C122.775 123.162 122.496 122.852 122.151 122.617C121.811 122.377 121.401 122.257 120.92 122.257C120.428 122.257 120.035 122.362 119.742 122.573C119.449 122.784 119.303 123.057 119.303 123.391C119.303 123.648 119.388 123.859 119.558 124.023C119.728 124.182 119.942 124.311 120.199 124.41C120.457 124.504 120.809 124.609 121.254 124.727C121.881 124.896 122.391 125.066 122.783 125.236C123.176 125.4 123.513 125.658 123.794 126.01C124.075 126.355 124.216 126.821 124.216 127.407C124.216 127.999 124.069 128.503 123.777 128.919C123.484 129.329 123.091 129.637 122.599 129.842C122.112 130.047 121.576 130.149 120.99 130.149ZM129.543 130.149C128.646 130.149 127.881 129.95 127.249 129.552C126.616 129.153 126.138 128.614 125.816 127.935C125.494 127.249 125.333 126.487 125.333 125.649C125.333 124.823 125.488 124.062 125.798 123.364C126.109 122.667 126.569 122.11 127.178 121.694C127.793 121.278 128.532 121.07 129.393 121.07C130.313 121.07 131.063 121.281 131.643 121.703C132.229 122.125 132.651 122.655 132.909 123.294C133.167 123.927 133.295 124.577 133.295 125.245C133.295 125.403 133.287 125.562 133.269 125.72C133.257 125.872 133.243 125.983 133.225 126.054H126.906C126.964 126.915 127.216 127.589 127.662 128.075C128.113 128.556 128.743 128.796 129.551 128.796C130.043 128.796 130.48 128.717 130.861 128.559C131.242 128.395 131.611 128.122 131.968 127.741L133.005 128.646C132.519 129.168 131.998 129.549 131.441 129.789C130.89 130.029 130.257 130.149 129.543 130.149ZM131.819 124.964C131.819 124.712 131.807 124.527 131.784 124.41C131.731 124.029 131.605 123.684 131.406 123.373C131.212 123.057 130.943 122.805 130.597 122.617C130.257 122.424 129.853 122.327 129.384 122.327C128.664 122.327 128.092 122.567 127.67 123.048C127.249 123.522 126.994 124.161 126.906 124.964H131.819ZM138.279 130.149C137.5 130.149 136.817 129.947 136.231 129.543C135.645 129.133 135.194 128.582 134.878 127.891C134.561 127.199 134.403 126.438 134.403 125.605C134.403 124.779 134.558 124.021 134.869 123.329C135.185 122.638 135.634 122.09 136.214 121.686C136.8 121.275 137.479 121.07 138.253 121.07C138.88 121.07 139.454 121.223 139.975 121.527C140.503 121.832 140.907 122.257 141.188 122.802V117.581H142.7V130H141.311L141.25 128.339C140.969 128.913 140.561 129.358 140.028 129.675C139.501 129.991 138.918 130.149 138.279 130.149ZM138.631 128.796C139.187 128.796 139.668 128.658 140.072 128.383C140.476 128.107 140.784 127.729 140.995 127.249C141.206 126.763 141.311 126.215 141.311 125.605C141.311 125.002 141.206 124.46 140.995 123.979C140.784 123.493 140.476 123.112 140.072 122.837C139.668 122.562 139.187 122.424 138.631 122.424C138.074 122.424 137.591 122.564 137.181 122.846C136.77 123.121 136.457 123.502 136.24 123.988C136.023 124.469 135.915 125.008 135.915 125.605C135.915 126.209 136.023 126.754 136.24 127.24C136.457 127.721 136.77 128.102 137.181 128.383C137.591 128.658 138.074 128.796 138.631 128.796ZM149.486 121.22H151.024V122.802C151.305 122.257 151.707 121.832 152.228 121.527C152.755 121.223 153.333 121.07 153.96 121.07C154.727 121.07 155.392 121.275 155.955 121.686C156.517 122.09 156.945 122.638 157.238 123.329C157.537 124.015 157.686 124.776 157.686 125.614C157.686 126.452 157.537 127.217 157.238 127.908C156.945 128.594 156.514 129.139 155.946 129.543C155.383 129.947 154.713 130.149 153.933 130.149C153.306 130.149 152.735 130 152.219 129.701C151.704 129.396 151.305 128.969 151.024 128.418V133.639H149.486V121.22ZM153.599 128.796C154.156 128.796 154.628 128.658 155.014 128.383C155.407 128.102 155.7 127.721 155.893 127.24C156.092 126.76 156.192 126.218 156.192 125.614C156.192 125.011 156.092 124.472 155.893 123.997C155.7 123.517 155.407 123.139 155.014 122.863C154.628 122.588 154.156 122.45 153.599 122.45C153.043 122.45 152.559 122.588 152.149 122.863C151.739 123.133 151.425 123.508 151.209 123.988C150.998 124.463 150.892 125.005 150.892 125.614C150.892 126.218 151.001 126.763 151.217 127.249C151.434 127.729 151.745 128.107 152.149 128.383C152.559 128.658 153.043 128.796 153.599 128.796ZM163.118 130.149C162.28 130.149 161.533 129.947 160.877 129.543C160.221 129.133 159.708 128.582 159.339 127.891C158.976 127.193 158.794 126.426 158.794 125.588C158.794 124.756 158.976 123.997 159.339 123.312C159.708 122.62 160.221 122.075 160.877 121.677C161.533 121.272 162.28 121.07 163.118 121.07C163.956 121.07 164.703 121.272 165.359 121.677C166.021 122.075 166.537 122.62 166.906 123.312C167.275 124.003 167.46 124.762 167.46 125.588C167.46 126.426 167.275 127.193 166.906 127.891C166.537 128.582 166.021 129.133 165.359 129.543C164.703 129.947 163.956 130.149 163.118 130.149ZM163.118 128.857C163.704 128.857 164.208 128.711 164.63 128.418C165.052 128.125 165.371 127.732 165.588 127.24C165.805 126.742 165.913 126.191 165.913 125.588C165.913 124.99 165.805 124.448 165.588 123.962C165.371 123.47 165.052 123.08 164.63 122.793C164.208 122.506 163.704 122.362 163.118 122.362C162.538 122.362 162.037 122.506 161.615 122.793C161.199 123.074 160.883 123.461 160.666 123.953C160.449 124.439 160.341 124.984 160.341 125.588C160.341 126.191 160.449 126.742 160.666 127.24C160.883 127.738 161.199 128.134 161.615 128.427C162.037 128.714 162.538 128.857 163.118 128.857ZM171.899 130.149C171.319 130.149 170.783 130.047 170.29 129.842C169.798 129.637 169.379 129.355 169.034 128.998C168.688 128.635 168.442 128.23 168.295 127.785L169.499 127.258C169.669 127.727 169.951 128.119 170.343 128.436C170.736 128.746 171.231 128.901 171.828 128.901C172.221 128.901 172.555 128.84 172.83 128.717C173.106 128.588 173.311 128.415 173.446 128.198C173.586 127.981 173.657 127.741 173.657 127.478C173.657 127.185 173.566 126.95 173.384 126.774C173.208 126.593 172.986 126.452 172.716 126.353C172.447 126.253 172.075 126.145 171.6 126.027C170.996 125.875 170.507 125.726 170.132 125.579C169.763 125.427 169.447 125.192 169.183 124.876C168.919 124.554 168.787 124.123 168.787 123.584C168.787 123.051 168.925 122.597 169.201 122.222C169.476 121.841 169.848 121.554 170.317 121.36C170.785 121.167 171.307 121.07 171.881 121.07C172.584 121.07 173.205 121.231 173.744 121.554C174.289 121.876 174.723 122.333 175.045 122.925L173.894 123.549C173.683 123.162 173.405 122.852 173.059 122.617C172.719 122.377 172.309 122.257 171.828 122.257C171.336 122.257 170.944 122.362 170.651 122.573C170.358 122.784 170.211 123.057 170.211 123.391C170.211 123.648 170.296 123.859 170.466 124.023C170.636 124.182 170.85 124.311 171.108 124.41C171.366 124.504 171.717 124.609 172.162 124.727C172.789 124.896 173.299 125.066 173.692 125.236C174.084 125.4 174.421 125.658 174.702 126.01C174.984 126.355 175.124 126.821 175.124 127.407C175.124 127.999 174.978 128.503 174.685 128.919C174.392 129.329 173.999 129.637 173.507 129.842C173.021 130.047 172.485 130.149 171.899 130.149ZM179.809 130.149C179.124 130.149 178.549 129.997 178.087 129.692C177.63 129.382 177.29 128.966 177.067 128.444C176.844 127.917 176.727 127.328 176.716 126.678V121.22H178.192V126.414C178.192 127.152 178.365 127.729 178.711 128.146C179.056 128.562 179.557 128.77 180.214 128.77C180.928 128.77 181.488 128.559 181.892 128.137C182.302 127.709 182.508 127.091 182.508 126.282V121.22H183.984V130H182.508V128.664C182.22 129.15 181.837 129.52 181.356 129.771C180.876 130.023 180.36 130.149 179.809 130.149ZM190.005 130.149C189.108 130.149 188.344 129.95 187.711 129.552C187.078 129.153 186.601 128.614 186.278 127.935C185.956 127.249 185.795 126.487 185.795 125.649C185.795 124.823 185.95 124.062 186.261 123.364C186.571 122.667 187.031 122.11 187.641 121.694C188.256 121.278 188.994 121.07 189.856 121.07C190.775 121.07 191.525 121.281 192.106 121.703C192.691 122.125 193.113 122.655 193.371 123.294C193.629 123.927 193.758 124.577 193.758 125.245C193.758 125.403 193.749 125.562 193.731 125.72C193.72 125.872 193.705 125.983 193.688 126.054H187.368C187.427 126.915 187.679 127.589 188.124 128.075C188.575 128.556 189.205 128.796 190.014 128.796C190.506 128.796 190.942 128.717 191.323 128.559C191.704 128.395 192.073 128.122 192.431 127.741L193.468 128.646C192.981 129.168 192.46 129.549 191.903 129.789C191.353 130.029 190.72 130.149 190.005 130.149ZM192.281 124.964C192.281 124.712 192.27 124.527 192.246 124.41C192.193 124.029 192.067 123.684 191.868 123.373C191.675 123.057 191.405 122.805 191.06 122.617C190.72 122.424 190.315 122.327 189.847 122.327C189.126 122.327 188.555 122.567 188.133 123.048C187.711 123.522 187.456 124.161 187.368 124.964H192.281ZM195.586 121.22H197.037V122.942C197.171 122.538 197.376 122.195 197.652 121.914C197.927 121.633 198.235 121.422 198.575 121.281C198.92 121.141 199.272 121.07 199.629 121.07C199.899 121.07 200.16 121.111 200.412 121.193C200.663 121.27 200.886 121.39 201.079 121.554L200.394 122.784C200.078 122.608 199.749 122.521 199.41 122.521C199.011 122.521 198.63 122.635 198.267 122.863C197.904 123.092 197.605 123.452 197.371 123.944C197.142 124.431 197.028 125.04 197.028 125.772V130H195.586V121.22ZM205.193 130.149C204.297 130.149 203.532 129.95 202.899 129.552C202.266 129.153 201.789 128.614 201.467 127.935C201.144 127.249 200.983 126.487 200.983 125.649C200.983 124.823 201.138 124.062 201.449 123.364C201.76 122.667 202.219 122.11 202.829 121.694C203.444 121.278 204.182 121.07 205.044 121.07C205.964 121.07 206.714 121.281 207.294 121.703C207.88 122.125 208.302 122.655 208.559 123.294C208.817 123.927 208.946 124.577 208.946 125.245C208.946 125.403 208.937 125.562 208.92 125.72C208.908 125.872 208.893 125.983 208.876 126.054H202.556C202.615 126.915 202.867 127.589 203.312 128.075C203.763 128.556 204.393 128.796 205.202 128.796C205.694 128.796 206.131 128.717 206.511 128.559C206.892 128.395 207.261 128.122 207.619 127.741L208.656 128.646C208.17 129.168 207.648 129.549 207.092 129.789C206.541 130.029 205.908 130.149 205.193 130.149ZM207.469 124.964C207.469 124.712 207.458 124.527 207.434 124.41C207.382 124.029 207.256 123.684 207.056 123.373C206.863 123.057 206.594 122.805 206.248 122.617C205.908 122.424 205.504 122.327 205.035 122.327C204.314 122.327 203.743 122.567 203.321 123.048C202.899 123.522 202.644 124.161 202.556 124.964H207.469ZM213.64 121.22H215.266L217.85 128.093L220.443 121.22H222.069L218.474 130H217.226L213.64 121.22ZM226.631 130.149C225.793 130.149 225.046 129.947 224.389 129.543C223.733 129.133 223.221 128.582 222.851 127.891C222.488 127.193 222.306 126.426 222.306 125.588C222.306 124.756 222.488 123.997 222.851 123.312C223.221 122.62 223.733 122.075 224.389 121.677C225.046 121.272 225.793 121.07 226.631 121.07C227.469 121.07 228.216 121.272 228.872 121.677C229.534 122.075 230.05 122.62 230.419 123.312C230.788 124.003 230.973 124.762 230.973 125.588C230.973 126.426 230.788 127.193 230.419 127.891C230.05 128.582 229.534 129.133 228.872 129.543C228.216 129.947 227.469 130.149 226.631 130.149ZM226.631 128.857C227.217 128.857 227.721 128.711 228.142 128.418C228.564 128.125 228.884 127.732 229.1 127.24C229.317 126.742 229.426 126.191 229.426 125.588C229.426 124.99 229.317 124.448 229.1 123.962C228.884 123.47 228.564 123.08 228.142 122.793C227.721 122.506 227.217 122.362 226.631 122.362C226.051 122.362 225.55 122.506 225.128 122.793C224.712 123.074 224.395 123.461 224.179 123.953C223.962 124.439 223.853 124.984 223.853 125.588C223.853 126.191 223.962 126.742 224.179 127.24C224.395 127.738 224.712 128.134 225.128 128.427C225.55 128.714 226.051 128.857 226.631 128.857ZM234.436 130.149C233.85 130.149 233.419 129.991 233.144 129.675C232.874 129.353 232.739 128.854 232.739 128.181V117.581H234.234V127.785C234.234 128.113 234.295 128.365 234.418 128.541C234.541 128.717 234.77 128.805 235.104 128.805C235.285 128.805 235.511 128.781 235.78 128.734L235.789 129.991C235.303 130.097 234.852 130.149 234.436 130.149ZM240.14 130.149C239.455 130.149 238.88 129.997 238.418 129.692C237.961 129.382 237.621 128.966 237.398 128.444C237.175 127.917 237.058 127.328 237.046 126.678V121.22H238.523V126.414C238.523 127.152 238.696 127.729 239.042 128.146C239.387 128.562 239.888 128.77 240.544 128.77C241.259 128.77 241.819 128.559 242.223 128.137C242.633 127.709 242.838 127.091 242.838 126.282V121.22H244.315V130H242.838V128.664C242.551 129.15 242.168 129.52 241.687 129.771C241.207 130.023 240.691 130.149 240.14 130.149ZM249.721 130.149C248.918 130.149 248.3 129.924 247.866 129.473C247.433 129.016 247.216 128.374 247.216 127.548V122.477H245.766V121.22H247.233V118.794L248.701 117.722V121.22H251.074V122.477H248.701V127.302C248.701 127.841 248.807 128.23 249.018 128.471C249.234 128.711 249.554 128.831 249.976 128.831C250.163 128.831 250.353 128.808 250.547 128.761C250.746 128.708 250.919 128.649 251.065 128.585L251.074 129.938C250.922 129.997 250.723 130.047 250.476 130.088C250.23 130.129 249.978 130.149 249.721 130.149ZM252.788 121.22H254.326V122.802C254.608 122.257 255.009 121.832 255.531 121.527C256.058 121.223 256.635 121.07 257.262 121.07C258.03 121.07 258.695 121.275 259.257 121.686C259.82 122.09 260.247 122.638 260.54 123.329C260.839 124.015 260.989 124.776 260.989 125.614C260.989 126.452 260.839 127.217 260.54 127.908C260.247 128.594 259.817 129.139 259.248 129.543C258.686 129.947 258.015 130.149 257.236 130.149C256.609 130.149 256.037 130 255.522 129.701C255.006 129.396 254.608 128.969 254.326 128.418V133.639H252.788V121.22ZM256.902 128.796C257.458 128.796 257.93 128.658 258.317 128.383C258.709 128.102 259.002 127.721 259.196 127.24C259.395 126.76 259.494 126.218 259.494 125.614C259.494 125.011 259.395 124.472 259.196 123.997C259.002 123.517 258.709 123.139 258.317 122.863C257.93 122.588 257.458 122.45 256.902 122.45C256.345 122.45 255.862 122.588 255.451 122.863C255.041 123.133 254.728 123.508 254.511 123.988C254.3 124.463 254.195 125.005 254.195 125.614C254.195 126.218 254.303 126.763 254.52 127.249C254.737 127.729 255.047 128.107 255.451 128.383C255.862 128.658 256.345 128.796 256.902 128.796ZM265.937 121.07C266.693 121.07 267.34 121.217 267.88 121.51C268.424 121.797 268.838 122.21 269.119 122.749C269.4 123.288 269.541 123.921 269.541 124.647V130H268.301L268.205 128.436C267.906 128.986 267.481 129.411 266.93 129.71C266.38 130.003 265.791 130.149 265.164 130.149C264.566 130.149 264.033 130.041 263.564 129.824C263.101 129.602 262.738 129.285 262.474 128.875C262.211 128.459 262.079 127.967 262.079 127.398C262.079 126.525 262.395 125.89 263.028 125.491C263.667 125.087 264.557 124.885 265.7 124.885H268.187C268.181 124.299 268.108 123.824 267.967 123.461C267.827 123.092 267.592 122.819 267.264 122.644C266.942 122.462 266.505 122.371 265.955 122.371C264.953 122.371 264.156 122.828 263.564 123.742L262.422 122.916C262.867 122.307 263.371 121.847 263.933 121.536C264.496 121.226 265.164 121.07 265.937 121.07ZM265.454 128.875C266.169 128.875 266.763 128.661 267.238 128.233C267.718 127.8 268.035 127.237 268.187 126.546V125.975H265.788C265.067 125.975 264.522 126.106 264.153 126.37C263.79 126.634 263.608 126.994 263.608 127.451C263.608 127.885 263.769 128.23 264.091 128.488C264.414 128.746 264.868 128.875 265.454 128.875ZM274.656 130.149C273.854 130.149 273.235 129.924 272.802 129.473C272.368 129.016 272.151 128.374 272.151 127.548V122.477H270.701V121.22H272.169V118.794L273.637 117.722V121.22H276.01V122.477H273.637V127.302C273.637 127.841 273.742 128.23 273.953 128.471C274.17 128.711 274.489 128.831 274.911 128.831C275.099 128.831 275.289 128.808 275.482 128.761C275.682 128.708 275.854 128.649 276.001 128.585L276.01 129.938C275.857 129.997 275.658 130.047 275.412 130.088C275.166 130.129 274.914 130.149 274.656 130.149ZM280.677 121.22H282.303L284.887 128.093L287.48 121.22H289.106L285.511 130H284.263L280.677 121.22ZM293.413 121.07C294.169 121.07 294.816 121.217 295.356 121.51C295.9 121.797 296.314 122.21 296.595 122.749C296.876 123.288 297.017 123.921 297.017 124.647V130H295.777L295.681 128.436C295.382 128.986 294.957 129.411 294.406 129.71C293.856 130.003 293.267 130.149 292.64 130.149C292.042 130.149 291.509 130.041 291.04 129.824C290.577 129.602 290.214 129.285 289.95 128.875C289.687 128.459 289.555 127.967 289.555 127.398C289.555 126.525 289.871 125.89 290.504 125.491C291.143 125.087 292.033 124.885 293.176 124.885H295.663C295.657 124.299 295.584 123.824 295.443 123.461C295.303 123.092 295.068 122.819 294.74 122.644C294.418 122.462 293.982 122.371 293.431 122.371C292.429 122.371 291.632 122.828 291.04 123.742L289.898 122.916C290.343 122.307 290.847 121.847 291.409 121.536C291.972 121.226 292.64 121.07 293.413 121.07ZM292.93 128.875C293.645 128.875 294.239 128.661 294.714 128.233C295.194 127.8 295.511 127.237 295.663 126.546V125.975H293.264C292.543 125.975 291.998 126.106 291.629 126.37C291.266 126.634 291.084 126.994 291.084 127.451C291.084 127.885 291.245 128.23 291.567 128.488C291.89 128.746 292.344 128.875 292.93 128.875ZM299.355 121.22H300.805V122.942C300.94 122.538 301.145 122.195 301.42 121.914C301.696 121.633 302.003 121.422 302.343 121.281C302.689 121.141 303.04 121.07 303.398 121.07C303.667 121.07 303.928 121.111 304.18 121.193C304.432 121.27 304.655 121.39 304.848 121.554L304.163 122.784C303.846 122.608 303.518 122.521 303.178 122.521C302.78 122.521 302.399 122.635 302.036 122.863C301.672 123.092 301.373 123.452 301.139 123.944C300.911 124.431 300.796 125.04 300.796 125.772V130H299.355V121.22ZM306.026 117.581H307.582V119.444H306.026V117.581ZM306.061 121.22H307.547V130H306.061V121.22ZM312.987 130.149C312.302 130.149 311.728 129.997 311.265 129.692C310.808 129.382 310.468 128.966 310.245 128.444C310.023 127.917 309.905 127.328 309.894 126.678V121.22H311.37V126.414C311.37 127.152 311.543 127.729 311.889 128.146C312.235 128.562 312.736 128.77 313.392 128.77C314.107 128.77 314.666 128.559 315.07 128.137C315.481 127.709 315.686 127.091 315.686 126.282V121.22H317.162V130H315.686V128.664C315.399 129.15 315.015 129.52 314.534 129.771C314.054 130.023 313.538 130.149 312.987 130.149ZM322.375 130.149C321.794 130.149 321.258 130.047 320.766 129.842C320.274 129.637 319.855 129.355 319.509 128.998C319.164 128.635 318.918 128.23 318.771 127.785L319.975 127.258C320.145 127.727 320.426 128.119 320.819 128.436C321.211 128.746 321.707 128.901 322.304 128.901C322.697 128.901 323.031 128.84 323.306 128.717C323.582 128.588 323.787 128.415 323.921 128.198C324.062 127.981 324.132 127.741 324.132 127.478C324.132 127.185 324.042 126.95 323.86 126.774C323.684 126.593 323.461 126.452 323.192 126.353C322.922 126.253 322.55 126.145 322.076 126.027C321.472 125.875 320.983 125.726 320.608 125.579C320.239 125.427 319.922 125.192 319.659 124.876C319.395 124.554 319.263 124.123 319.263 123.584C319.263 123.051 319.401 122.597 319.676 122.222C319.952 121.841 320.324 121.554 320.793 121.36C321.261 121.167 321.783 121.07 322.357 121.07C323.06 121.07 323.681 121.231 324.22 121.554C324.765 121.876 325.199 122.333 325.521 122.925L324.37 123.549C324.159 123.162 323.88 122.852 323.535 122.617C323.195 122.377 322.785 122.257 322.304 122.257C321.812 122.257 321.419 122.362 321.126 122.573C320.834 122.784 320.687 123.057 320.687 123.391C320.687 123.648 320.772 123.859 320.942 124.023C321.112 124.182 321.326 124.311 321.584 124.41C321.841 124.504 322.193 124.609 322.638 124.727C323.265 124.896 323.775 125.066 324.168 125.236C324.56 125.4 324.897 125.658 325.178 126.01C325.46 126.355 325.6 126.821 325.6 127.407C325.6 127.999 325.454 128.503 325.161 128.919C324.868 129.329 324.475 129.637 323.983 129.842C323.497 130.047 322.96 130.149 322.375 130.149ZM19.9243 156.149C19.0278 156.149 18.2631 155.95 17.6303 155.552C16.9975 155.153 16.52 154.614 16.1977 153.935C15.8754 153.249 15.7143 152.487 15.7143 151.649C15.7143 150.823 15.8696 150.062 16.1801 149.364C16.4907 148.667 16.9506 148.11 17.56 147.694C18.1752 147.278 18.9135 147.07 19.7748 147.07C20.6948 147.07 21.4448 147.281 22.0248 147.703C22.6108 148.125 23.0327 148.655 23.2905 149.294C23.5483 149.927 23.6772 150.577 23.6772 151.245C23.6772 151.403 23.6684 151.562 23.6508 151.72C23.6391 151.872 23.6245 151.983 23.6069 152.054H17.2875C17.3461 152.915 17.5981 153.589 18.0434 154.075C18.4946 154.556 19.1245 154.796 19.933 154.796C20.4252 154.796 20.8618 154.717 21.2426 154.559C21.6235 154.395 21.9926 154.122 22.35 153.741L23.3871 154.646C22.9008 155.168 22.3793 155.549 21.8227 155.789C21.2719 156.029 20.6391 156.149 19.9243 156.149ZM22.2006 150.964C22.2006 150.712 22.1889 150.527 22.1655 150.41C22.1127 150.029 21.9868 149.684 21.7875 149.373C21.5942 149.057 21.3246 148.805 20.9789 148.617C20.6391 148.424 20.2348 148.327 19.7661 148.327C19.0453 148.327 18.4741 148.567 18.0522 149.048C17.6303 149.522 17.3754 150.161 17.2875 150.964H22.2006ZM29.0213 154.84C29.783 154.951 30.4012 155.077 30.8758 155.218C31.3562 155.353 31.7605 155.587 32.0887 155.921C32.4168 156.255 32.5809 156.721 32.5809 157.318C32.5809 157.904 32.4197 158.405 32.0975 158.821C31.7811 159.237 31.3416 159.551 30.7791 159.762C30.2166 159.973 29.5721 160.078 28.8455 160.078C28.0018 160.078 27.2752 159.949 26.6658 159.691C26.0623 159.434 25.6023 159.076 25.2859 158.619C24.9695 158.168 24.8113 157.646 24.8113 157.055C24.8113 156.914 24.8201 156.785 24.8377 156.668L26.0506 155.587C25.3533 155.224 25.0047 154.658 25.0047 153.891C25.0047 153.521 25.0809 153.196 25.2332 152.915C25.3855 152.634 25.6111 152.382 25.91 152.159C25.6697 151.89 25.4852 151.585 25.3562 151.245C25.2273 150.905 25.1629 150.542 25.1629 150.155C25.1629 149.563 25.3152 149.033 25.6199 148.564C25.9246 148.096 26.3377 147.729 26.8592 147.466C27.3807 147.202 27.9549 147.07 28.5818 147.07C28.992 147.07 29.3816 147.129 29.7508 147.246C30.1199 147.357 30.4539 147.519 30.7527 147.729L32.0008 146.648L32.7742 147.615L31.5701 148.617C31.8631 149.092 32.0096 149.631 32.0096 150.234C32.0096 150.838 31.8602 151.371 31.5613 151.834C31.2625 152.297 30.8553 152.654 30.3396 152.906C29.824 153.158 29.2527 153.284 28.6258 153.284C27.9695 153.284 27.3719 153.146 26.8328 152.871C26.4695 153.047 26.2879 153.302 26.2879 153.636C26.2879 153.894 26.3846 154.096 26.5779 154.242C26.7771 154.389 27.032 154.497 27.3426 154.567C27.659 154.638 28.116 154.714 28.7137 154.796L29.0213 154.84ZM28.6346 148.23C28.2478 148.23 27.908 148.312 27.615 148.477C27.3221 148.641 27.0965 148.869 26.9383 149.162C26.7801 149.455 26.701 149.789 26.701 150.164C26.701 150.539 26.7771 150.87 26.9295 151.157C27.0877 151.438 27.3103 151.661 27.5975 151.825C27.8904 151.983 28.2332 152.062 28.6258 152.062C29.0184 152.062 29.3582 151.983 29.6453 151.825C29.9324 151.667 30.1521 151.444 30.3045 151.157C30.4568 150.87 30.533 150.542 30.533 150.173C30.533 149.792 30.4568 149.455 30.3045 149.162C30.1521 148.869 29.9324 148.641 29.6453 148.477C29.3582 148.312 29.0213 148.23 28.6346 148.23ZM28.8367 158.909C29.5516 158.909 30.117 158.783 30.533 158.531C30.9549 158.279 31.1658 157.928 31.1658 157.477C31.1658 157.172 31.0603 156.935 30.8494 156.765C30.6443 156.595 30.3631 156.469 30.0057 156.387C29.6541 156.305 29.1531 156.223 28.5027 156.141C28.45 156.135 28.2566 156.111 27.9227 156.07C27.5945 156.029 27.2781 155.974 26.9734 155.903L26.1473 156.984L26.1736 157.248C26.2615 157.787 26.5428 158.197 27.0174 158.479C27.4978 158.766 28.1043 158.909 28.8367 158.909ZM37.8019 156.149C36.9054 156.149 36.1408 155.95 35.508 155.552C34.8752 155.153 34.3976 154.614 34.0753 153.935C33.7531 153.249 33.5919 152.487 33.5919 151.649C33.5919 150.823 33.7472 150.062 34.0578 149.364C34.3683 148.667 34.8283 148.11 35.4377 147.694C36.0529 147.278 36.7912 147.07 37.6525 147.07C38.5724 147.07 39.3224 147.281 39.9025 147.703C40.4884 148.125 40.9103 148.655 41.1681 149.294C41.4259 149.927 41.5548 150.577 41.5548 151.245C41.5548 151.403 41.5461 151.562 41.5285 151.72C41.5168 151.872 41.5021 151.983 41.4845 152.054H35.1652C35.2238 152.915 35.4757 153.589 35.9211 154.075C36.3722 154.556 37.0021 154.796 37.8107 154.796C38.3029 154.796 38.7394 154.717 39.1203 154.559C39.5011 154.395 39.8703 154.122 40.2277 153.741L41.2648 154.646C40.7785 155.168 40.257 155.549 39.7003 155.789C39.1496 156.029 38.5168 156.149 37.8019 156.149ZM40.0783 150.964C40.0783 150.712 40.0666 150.527 40.0431 150.41C39.9904 150.029 39.8644 149.684 39.6652 149.373C39.4718 149.057 39.2023 148.805 38.8566 148.617C38.5168 148.424 38.1125 148.327 37.6437 148.327C36.923 148.327 36.3517 148.567 35.9298 149.048C35.508 149.522 35.2531 150.161 35.1652 150.964H40.0783ZM46.0025 156.149C45.4224 156.149 44.8862 156.047 44.3941 155.842C43.9019 155.637 43.4829 155.355 43.1372 154.998C42.7915 154.635 42.5454 154.23 42.3989 153.785L43.603 153.258C43.773 153.727 44.0542 154.119 44.4468 154.436C44.8394 154.746 45.3345 154.901 45.9321 154.901C46.3247 154.901 46.6587 154.84 46.9341 154.717C47.2095 154.588 47.4146 154.415 47.5493 154.198C47.69 153.981 47.7603 153.741 47.7603 153.478C47.7603 153.185 47.6694 152.95 47.4878 152.774C47.312 152.593 47.0894 152.452 46.8198 152.353C46.5503 152.253 46.1782 152.145 45.7036 152.027C45.1001 151.875 44.6109 151.726 44.2359 151.579C43.8667 151.427 43.5503 151.192 43.2866 150.876C43.023 150.554 42.8911 150.123 42.8911 149.584C42.8911 149.051 43.0288 148.597 43.3042 148.222C43.5796 147.841 43.9517 147.554 44.4204 147.36C44.8892 147.167 45.4107 147.07 45.9849 147.07C46.688 147.07 47.3091 147.231 47.8482 147.554C48.3931 147.876 48.8267 148.333 49.1489 148.925L47.9976 149.549C47.7866 149.162 47.5083 148.852 47.1626 148.617C46.8228 148.377 46.4126 148.257 45.9321 148.257C45.44 148.257 45.0474 148.362 44.7544 148.573C44.4614 148.784 44.315 149.057 44.315 149.391C44.315 149.648 44.3999 149.859 44.5698 150.023C44.7398 150.182 44.9536 150.311 45.2114 150.41C45.4693 150.504 45.8208 150.609 46.2661 150.727C46.8931 150.896 47.4028 151.066 47.7954 151.236C48.188 151.4 48.5249 151.658 48.8062 152.01C49.0874 152.355 49.228 152.821 49.228 153.407C49.228 153.999 49.0816 154.503 48.7886 154.919C48.4956 155.329 48.103 155.637 47.6109 155.842C47.1245 156.047 46.5884 156.149 46.0025 156.149ZM53.9393 156.149C53.1366 156.149 52.5184 155.924 52.0848 155.473C51.6512 155.016 51.4345 154.374 51.4345 153.548V148.477H49.9843V147.22H51.452V144.794L52.9198 143.722V147.22H55.2929V148.477H52.9198V153.302C52.9198 153.841 53.0253 154.23 53.2362 154.471C53.453 154.711 53.7723 154.831 54.1942 154.831C54.3817 154.831 54.5721 154.808 54.7655 154.761C54.9647 154.708 55.1376 154.649 55.2841 154.585L55.2929 155.938C55.1405 155.997 54.9413 156.047 54.6952 156.088C54.4491 156.129 54.1971 156.149 53.9393 156.149ZM60.2151 147.07C60.9709 147.07 61.6184 147.217 62.1575 147.51C62.7024 147.797 63.1155 148.21 63.3967 148.749C63.678 149.288 63.8186 149.921 63.8186 150.647V156H62.5793L62.4827 154.436C62.1838 154.986 61.759 155.411 61.2082 155.71C60.6575 156.003 60.0686 156.149 59.4416 156.149C58.844 156.149 58.3108 156.041 57.842 155.824C57.3791 155.602 57.0159 155.285 56.7522 154.875C56.4885 154.459 56.3567 153.967 56.3567 153.398C56.3567 152.525 56.6731 151.89 57.3059 151.491C57.9446 151.087 58.8352 150.885 59.9778 150.885H62.4651C62.4592 150.299 62.386 149.824 62.2453 149.461C62.1047 149.092 61.8703 148.819 61.5422 148.644C61.22 148.462 60.7834 148.371 60.2327 148.371C59.2307 148.371 58.4338 148.828 57.842 149.742L56.6995 148.916C57.1448 148.307 57.6487 147.847 58.2112 147.536C58.7737 147.226 59.4416 147.07 60.2151 147.07ZM59.7317 154.875C60.4465 154.875 61.0412 154.661 61.5159 154.233C61.9963 153.8 62.3127 153.237 62.4651 152.546V151.975H60.0657C59.345 151.975 58.8 152.106 58.4309 152.37C58.0676 152.634 57.886 152.994 57.886 153.451C57.886 153.885 58.0471 154.23 58.3694 154.488C58.6916 154.746 59.1457 154.875 59.7317 154.875ZM68.776 156.149C68.1959 156.149 67.6598 156.047 67.1676 155.842C66.6754 155.637 66.2564 155.355 65.9107 154.998C65.565 154.635 65.3189 154.23 65.1725 153.785L66.3766 153.258C66.5465 153.727 66.8277 154.119 67.2203 154.436C67.6129 154.746 68.108 154.901 68.7057 154.901C69.0982 154.901 69.4322 154.84 69.7076 154.717C69.983 154.588 70.1881 154.415 70.3228 154.198C70.4635 153.981 70.5338 153.741 70.5338 153.478C70.5338 153.185 70.443 152.95 70.2613 152.774C70.0855 152.593 69.8629 152.452 69.5934 152.353C69.3238 152.253 68.9518 152.145 68.4771 152.027C67.8736 151.875 67.3844 151.726 67.0094 151.579C66.6402 151.427 66.3238 151.192 66.0602 150.876C65.7965 150.554 65.6646 150.123 65.6646 149.584C65.6646 149.051 65.8023 148.597 66.0777 148.222C66.3531 147.841 66.7252 147.554 67.1939 147.36C67.6627 147.167 68.1842 147.07 68.7584 147.07C69.4615 147.07 70.0826 147.231 70.6217 147.554C71.1666 147.876 71.6002 148.333 71.9225 148.925L70.7711 149.549C70.5602 149.162 70.2818 148.852 69.9361 148.617C69.5963 148.377 69.1861 148.257 68.7057 148.257C68.2135 148.257 67.8209 148.362 67.5279 148.573C67.235 148.784 67.0885 149.057 67.0885 149.391C67.0885 149.648 67.1734 149.859 67.3434 150.023C67.5133 150.182 67.7271 150.311 67.985 150.41C68.2428 150.504 68.5943 150.609 69.0396 150.727C69.6666 150.896 70.1764 151.066 70.5689 151.236C70.9615 151.4 71.2984 151.658 71.5797 152.01C71.8609 152.355 72.0016 152.821 72.0016 153.407C72.0016 153.999 71.8551 154.503 71.5621 154.919C71.2691 155.329 70.8766 155.637 70.3844 155.842C69.898 156.047 69.3619 156.149 68.776 156.149ZM80.6771 156.149C80.097 156.149 79.5609 156.047 79.0687 155.842C78.5765 155.637 78.1575 155.355 77.8118 154.998C77.4661 154.635 77.22 154.23 77.0735 153.785L78.2776 153.258C78.4476 153.727 78.7288 154.119 79.1214 154.436C79.514 154.746 80.0091 154.901 80.6068 154.901C80.9993 154.901 81.3333 154.84 81.6087 154.717C81.8841 154.588 82.0892 154.415 82.2239 154.198C82.3646 153.981 82.4349 153.741 82.4349 153.478C82.4349 153.185 82.3441 152.95 82.1624 152.774C81.9866 152.593 81.764 152.452 81.4944 152.353C81.2249 152.253 80.8528 152.145 80.3782 152.027C79.7747 151.875 79.2855 151.726 78.9105 151.579C78.5413 151.427 78.2249 151.192 77.9612 150.876C77.6976 150.554 77.5657 150.123 77.5657 149.584C77.5657 149.051 77.7034 148.597 77.9788 148.222C78.2542 147.841 78.6263 147.554 79.095 147.36C79.5638 147.167 80.0853 147.07 80.6595 147.07C81.3626 147.07 81.9837 147.231 82.5228 147.554C83.0677 147.876 83.5013 148.333 83.8235 148.925L82.6722 149.549C82.4612 149.162 82.1829 148.852 81.8372 148.617C81.4974 148.377 81.0872 148.257 80.6068 148.257C80.1146 148.257 79.722 148.362 79.429 148.573C79.136 148.784 78.9896 149.057 78.9896 149.391C78.9896 149.648 79.0745 149.859 79.2444 150.023C79.4144 150.182 79.6282 150.311 79.886 150.41C80.1439 150.504 80.4954 150.609 80.9407 150.727C81.5677 150.896 82.0775 151.066 82.47 151.236C82.8626 151.4 83.1995 151.658 83.4808 152.01C83.762 152.355 83.9026 152.821 83.9026 153.407C83.9026 153.999 83.7562 154.503 83.4632 154.919C83.1702 155.329 82.7776 155.637 82.2855 155.842C81.7991 156.047 81.263 156.149 80.6771 156.149ZM85.7663 143.581H87.322V145.444H85.7663V143.581ZM85.8014 147.22H87.2868V156H85.8014V147.22ZM92.6836 156.149C91.8809 156.149 91.2627 155.924 90.8291 155.473C90.3955 155.016 90.1787 154.374 90.1787 153.548V148.477H88.7286V147.22H90.1963V144.794L91.6641 143.722V147.22H94.0371V148.477H91.6641V153.302C91.6641 153.841 91.7696 154.23 91.9805 154.471C92.1973 154.711 92.5166 154.831 92.9385 154.831C93.126 154.831 93.3164 154.808 93.5098 154.761C93.709 154.708 93.8819 154.649 94.0284 154.585L94.0371 155.938C93.8848 155.997 93.6856 156.047 93.4395 156.088C93.1934 156.129 92.9414 156.149 92.6836 156.149ZM96.393 153.935H97.8959V156H96.393V153.935ZM108.901 143.581H110.131L114.859 156H113.181L112.144 153.1H106.914L105.859 156H104.172L108.901 143.581ZM111.66 151.772L109.525 145.796L107.398 151.772H111.66ZM116.363 147.22H117.804V148.6C118.05 148.084 118.396 147.7 118.841 147.448C119.287 147.196 119.793 147.07 120.362 147.07C120.995 147.07 121.545 147.22 122.014 147.519C122.483 147.812 122.82 148.266 123.025 148.881C123.306 148.277 123.696 147.826 124.194 147.527C124.698 147.223 125.266 147.07 125.899 147.07C126.59 147.07 127.165 147.231 127.622 147.554C128.079 147.876 128.416 148.318 128.632 148.881C128.855 149.443 128.966 150.091 128.966 150.823V156H127.472V150.999C127.472 150.173 127.326 149.543 127.033 149.109C126.746 148.676 126.271 148.459 125.609 148.459C125.169 148.459 124.783 148.567 124.449 148.784C124.115 148.995 123.857 149.288 123.675 149.663C123.499 150.032 123.412 150.451 123.412 150.92V156H121.926V150.779C121.926 150.047 121.777 149.479 121.478 149.074C121.179 148.664 120.71 148.459 120.072 148.459C119.626 148.459 119.237 148.567 118.903 148.784C118.569 148.995 118.311 149.288 118.129 149.663C117.954 150.032 117.866 150.451 117.866 150.92V156H116.372L116.363 147.22ZM134.794 156.149C133.897 156.149 133.133 155.95 132.5 155.552C131.867 155.153 131.389 154.614 131.067 153.935C130.745 153.249 130.584 152.487 130.584 151.649C130.584 150.823 130.739 150.062 131.05 149.364C131.36 148.667 131.82 148.11 132.43 147.694C133.045 147.278 133.783 147.07 134.644 147.07C135.564 147.07 136.314 147.281 136.894 147.703C137.48 148.125 137.902 148.655 138.16 149.294C138.418 149.927 138.547 150.577 138.547 151.245C138.547 151.403 138.538 151.562 138.52 151.72C138.509 151.872 138.494 151.983 138.476 152.054H132.157C132.216 152.915 132.468 153.589 132.913 154.075C133.364 154.556 133.994 154.796 134.803 154.796C135.295 154.796 135.731 154.717 136.112 154.559C136.493 154.395 136.862 154.122 137.22 153.741L138.257 154.646C137.77 155.168 137.249 155.549 136.692 155.789C136.141 156.029 135.509 156.149 134.794 156.149ZM137.07 150.964C137.07 150.712 137.058 150.527 137.035 150.41C136.982 150.029 136.856 149.684 136.657 149.373C136.464 149.057 136.194 148.805 135.848 148.617C135.509 148.424 135.104 148.327 134.636 148.327C133.915 148.327 133.344 148.567 132.922 149.048C132.5 149.522 132.245 150.161 132.157 150.964H137.07ZM143.188 156.149C142.385 156.149 141.767 155.924 141.333 155.473C140.9 155.016 140.683 154.374 140.683 153.548V148.477H139.233V147.22H140.7V144.794L142.168 143.722V147.22H144.541V148.477H142.168V153.302C142.168 153.841 142.274 154.23 142.485 154.471C142.701 154.711 143.021 154.831 143.443 154.831C143.63 154.831 143.82 154.808 144.014 154.761C144.213 154.708 144.386 154.649 144.532 154.585L144.541 155.938C144.389 155.997 144.19 156.047 143.944 156.088C143.697 156.129 143.445 156.149 143.188 156.149ZM147.811 153.688H149.525L147.205 158.733H146.194L147.811 153.688ZM158.438 156.149C157.858 156.149 157.322 156.047 156.829 155.842C156.337 155.637 155.918 155.355 155.573 154.998C155.227 154.635 154.981 154.23 154.834 153.785L156.038 153.258C156.208 153.727 156.49 154.119 156.882 154.436C157.275 154.746 157.77 154.901 158.367 154.901C158.76 154.901 159.094 154.84 159.369 154.717C159.645 154.588 159.85 154.415 159.985 154.198C160.125 153.981 160.196 153.741 160.196 153.478C160.196 153.185 160.105 152.95 159.923 152.774C159.747 152.593 159.525 152.452 159.255 152.353C158.986 152.253 158.614 152.145 158.139 152.027C157.535 151.875 157.046 151.726 156.671 151.579C156.302 151.427 155.986 151.192 155.722 150.876C155.458 150.554 155.326 150.123 155.326 149.584C155.326 149.051 155.464 148.597 155.74 148.222C156.015 147.841 156.387 147.554 156.856 147.36C157.324 147.167 157.846 147.07 158.42 147.07C159.123 147.07 159.744 147.231 160.283 147.554C160.828 147.876 161.262 148.333 161.584 148.925L160.433 149.549C160.222 149.162 159.944 148.852 159.598 148.617C159.258 148.377 158.848 148.257 158.367 148.257C157.875 148.257 157.483 148.362 157.19 148.573C156.897 148.784 156.75 149.057 156.75 149.391C156.75 149.648 156.835 149.859 157.005 150.023C157.175 150.182 157.389 150.311 157.647 150.41C157.905 150.504 158.256 150.609 158.701 150.727C159.328 150.896 159.838 151.066 160.231 151.236C160.623 151.4 160.96 151.658 161.241 152.01C161.523 152.355 161.663 152.821 161.663 153.407C161.663 153.999 161.517 154.503 161.224 154.919C160.931 155.329 160.538 155.637 160.046 155.842C159.56 156.047 159.024 156.149 158.438 156.149ZM166.348 156.149C165.663 156.149 165.089 155.997 164.626 155.692C164.169 155.382 163.829 154.966 163.606 154.444C163.383 153.917 163.266 153.328 163.255 152.678V147.22H164.731V152.414C164.731 153.152 164.904 153.729 165.25 154.146C165.595 154.562 166.096 154.77 166.753 154.77C167.467 154.77 168.027 154.559 168.431 154.137C168.841 153.709 169.047 153.091 169.047 152.282V147.22H170.523V156H169.047V154.664C168.759 155.15 168.376 155.52 167.895 155.771C167.415 156.023 166.899 156.149 166.348 156.149ZM175.735 156.149C175.155 156.149 174.619 156.047 174.127 155.842C173.635 155.637 173.216 155.355 172.87 154.998C172.524 154.635 172.278 154.23 172.132 153.785L173.336 153.258C173.506 153.727 173.787 154.119 174.18 154.436C174.572 154.746 175.067 154.901 175.665 154.901C176.058 154.901 176.392 154.84 176.667 154.717C176.942 154.588 177.147 154.415 177.282 154.198C177.423 153.981 177.493 153.741 177.493 153.478C177.493 153.185 177.402 152.95 177.221 152.774C177.045 152.593 176.822 152.452 176.553 152.353C176.283 152.253 175.911 152.145 175.437 152.027C174.833 151.875 174.344 151.726 173.969 151.579C173.6 151.427 173.283 151.192 173.02 150.876C172.756 150.554 172.624 150.123 172.624 149.584C172.624 149.051 172.762 148.597 173.037 148.222C173.312 147.841 173.685 147.554 174.153 147.36C174.622 147.167 175.144 147.07 175.718 147.07C176.421 147.07 177.042 147.231 177.581 147.554C178.126 147.876 178.56 148.333 178.882 148.925L177.73 149.549C177.52 149.162 177.241 148.852 176.896 148.617C176.556 148.377 176.146 148.257 175.665 148.257C175.173 148.257 174.78 148.362 174.487 148.573C174.194 148.784 174.048 149.057 174.048 149.391C174.048 149.648 174.133 149.859 174.303 150.023C174.473 150.182 174.687 150.311 174.944 150.41C175.202 150.504 175.554 150.609 175.999 150.727C176.626 150.896 177.136 151.066 177.528 151.236C177.921 151.4 178.258 151.658 178.539 152.01C178.82 152.355 178.961 152.821 178.961 153.407C178.961 153.999 178.814 154.503 178.521 154.919C178.229 155.329 177.836 155.637 177.344 155.842C176.857 156.047 176.321 156.149 175.735 156.149ZM184.12 156.149C183.271 156.149 182.541 155.947 181.932 155.543C181.323 155.133 180.86 154.585 180.543 153.899C180.227 153.208 180.069 152.449 180.069 151.623C180.069 150.826 180.221 150.082 180.526 149.391C180.83 148.693 181.285 148.134 181.888 147.712C182.497 147.284 183.236 147.07 184.103 147.07C184.935 147.07 185.664 147.281 186.291 147.703C186.924 148.119 187.402 148.731 187.724 149.54L186.309 150.094C186.133 149.578 185.849 149.171 185.456 148.872C185.07 148.573 184.619 148.424 184.103 148.424C183.546 148.424 183.077 148.573 182.697 148.872C182.316 149.165 182.035 149.555 181.853 150.041C181.671 150.527 181.58 151.055 181.58 151.623C181.58 152.197 181.671 152.725 181.853 153.205C182.035 153.686 182.313 154.072 182.688 154.365C183.069 154.652 183.54 154.796 184.103 154.796C184.624 154.796 185.078 154.649 185.465 154.356C185.852 154.058 186.124 153.656 186.283 153.152L187.636 153.662C187.361 154.447 186.912 155.06 186.291 155.499C185.676 155.933 184.952 156.149 184.12 156.149ZM189.306 143.581H190.862V145.444H189.306V143.581ZM189.342 147.22H190.827V156H189.342V147.22ZM193.429 147.22H194.967V148.802C195.248 148.257 195.649 147.832 196.171 147.527C196.698 147.223 197.275 147.07 197.902 147.07C198.67 147.07 199.335 147.275 199.898 147.686C200.46 148.09 200.888 148.638 201.181 149.329C201.48 150.015 201.629 150.776 201.629 151.614C201.629 152.452 201.48 153.217 201.181 153.908C200.888 154.594 200.457 155.139 199.889 155.543C199.326 155.947 198.655 156.149 197.876 156.149C197.249 156.149 196.678 156 196.162 155.701C195.647 155.396 195.248 154.969 194.967 154.418V159.639H193.429V147.22ZM197.542 154.796C198.099 154.796 198.57 154.658 198.957 154.383C199.35 154.102 199.643 153.721 199.836 153.24C200.035 152.76 200.135 152.218 200.135 151.614C200.135 151.011 200.035 150.472 199.836 149.997C199.643 149.517 199.35 149.139 198.957 148.863C198.57 148.588 198.099 148.45 197.542 148.45C196.985 148.45 196.502 148.588 196.092 148.863C195.682 149.133 195.368 149.508 195.151 149.988C194.941 150.463 194.835 151.005 194.835 151.614C194.835 152.218 194.943 152.763 195.16 153.249C195.377 153.729 195.688 154.107 196.092 154.383C196.502 154.658 196.985 154.796 197.542 154.796ZM203.493 143.581H205.048V145.444H203.493V143.581ZM203.528 147.22H205.013V156H203.528V147.22ZM210.41 156.149C209.607 156.149 208.989 155.924 208.555 155.473C208.122 155.016 207.905 154.374 207.905 153.548V148.477H206.455V147.22H207.923V144.794L209.39 143.722V147.22H211.763V148.477H209.39V153.302C209.39 153.841 209.496 154.23 209.707 154.471C209.924 154.711 210.243 154.831 210.665 154.831C210.852 154.831 211.043 154.808 211.236 154.761C211.435 154.708 211.608 154.649 211.755 154.585L211.763 155.938C211.611 155.997 211.412 156.047 211.166 156.088C210.92 156.129 210.668 156.149 210.41 156.149ZM221.204 156.149C220.307 156.149 219.542 155.95 218.91 155.552C218.277 155.153 217.799 154.614 217.477 153.935C217.155 153.249 216.994 152.487 216.994 151.649C216.994 150.823 217.149 150.062 217.459 149.364C217.77 148.667 218.23 148.11 218.839 147.694C219.455 147.278 220.193 147.07 221.054 147.07C221.974 147.07 222.724 147.281 223.304 147.703C223.89 148.125 224.312 148.655 224.57 149.294C224.828 149.927 224.957 150.577 224.957 151.245C224.957 151.403 224.948 151.562 224.93 151.72C224.918 151.872 224.904 151.983 224.886 152.054H218.567C218.626 152.915 218.877 153.589 219.323 154.075C219.774 154.556 220.404 154.796 221.212 154.796C221.705 154.796 222.141 154.717 222.522 154.559C222.903 154.395 223.272 154.122 223.629 153.741L224.667 154.646C224.18 155.168 223.659 155.549 223.102 155.789C222.551 156.029 221.918 156.149 221.204 156.149ZM223.48 150.964C223.48 150.712 223.468 150.527 223.445 150.41C223.392 150.029 223.266 149.684 223.067 149.373C222.874 149.057 222.604 148.805 222.258 148.617C221.918 148.424 221.514 148.327 221.045 148.327C220.325 148.327 219.753 148.567 219.332 149.048C218.91 149.522 218.655 150.161 218.567 150.964H223.48ZM230.301 154.84C231.062 154.951 231.681 155.077 232.155 155.218C232.636 155.353 233.04 155.587 233.368 155.921C233.696 156.255 233.86 156.721 233.86 157.318C233.86 157.904 233.699 158.405 233.377 158.821C233.06 159.237 232.621 159.551 232.058 159.762C231.496 159.973 230.851 160.078 230.125 160.078C229.281 160.078 228.555 159.949 227.945 159.691C227.342 159.434 226.882 159.076 226.565 158.619C226.249 158.168 226.091 157.646 226.091 157.055C226.091 156.914 226.099 156.785 226.117 156.668L227.33 155.587C226.633 155.224 226.284 154.658 226.284 153.891C226.284 153.521 226.36 153.196 226.513 152.915C226.665 152.634 226.891 152.382 227.189 152.159C226.949 151.89 226.765 151.585 226.636 151.245C226.507 150.905 226.442 150.542 226.442 150.155C226.442 149.563 226.595 149.033 226.899 148.564C227.204 148.096 227.617 147.729 228.139 147.466C228.66 147.202 229.234 147.07 229.861 147.07C230.271 147.07 230.661 147.129 231.03 147.246C231.399 147.357 231.733 147.519 232.032 147.729L233.28 146.648L234.054 147.615L232.849 148.617C233.142 149.092 233.289 149.631 233.289 150.234C233.289 150.838 233.14 151.371 232.841 151.834C232.542 152.297 232.135 152.654 231.619 152.906C231.103 153.158 230.532 153.284 229.905 153.284C229.249 153.284 228.651 153.146 228.112 152.871C227.749 153.047 227.567 153.302 227.567 153.636C227.567 153.894 227.664 154.096 227.857 154.242C228.057 154.389 228.311 154.497 228.622 154.567C228.938 154.638 229.395 154.714 229.993 154.796L230.301 154.84ZM229.914 148.23C229.527 148.23 229.187 148.312 228.894 148.477C228.601 148.641 228.376 148.869 228.218 149.162C228.059 149.455 227.98 149.789 227.98 150.164C227.98 150.539 228.057 150.87 228.209 151.157C228.367 151.438 228.59 151.661 228.877 151.825C229.17 151.983 229.513 152.062 229.905 152.062C230.298 152.062 230.638 151.983 230.925 151.825C231.212 151.667 231.432 151.444 231.584 151.157C231.736 150.87 231.812 150.542 231.812 150.173C231.812 149.792 231.736 149.455 231.584 149.162C231.432 148.869 231.212 148.641 230.925 148.477C230.638 148.312 230.301 148.23 229.914 148.23ZM230.116 158.909C230.831 158.909 231.396 158.783 231.812 158.531C232.234 158.279 232.445 157.928 232.445 157.477C232.445 157.172 232.34 156.935 232.129 156.765C231.924 156.595 231.642 156.469 231.285 156.387C230.933 156.305 230.432 156.223 229.782 156.141C229.729 156.135 229.536 156.111 229.202 156.07C228.874 156.029 228.557 155.974 228.253 155.903L227.427 156.984L227.453 157.248C227.541 157.787 227.822 158.197 228.297 158.479C228.777 158.766 229.384 158.909 230.116 158.909ZM239.081 156.149C238.185 156.149 237.42 155.95 236.787 155.552C236.155 155.153 235.677 154.614 235.355 153.935C235.032 153.249 234.871 152.487 234.871 151.649C234.871 150.823 235.027 150.062 235.337 149.364C235.648 148.667 236.108 148.11 236.717 147.694C237.332 147.278 238.071 147.07 238.932 147.07C239.852 147.07 240.602 147.281 241.182 147.703C241.768 148.125 242.19 148.655 242.447 149.294C242.705 149.927 242.834 150.577 242.834 151.245C242.834 151.403 242.825 151.562 242.808 151.72C242.796 151.872 242.781 151.983 242.764 152.054H236.445C236.503 152.915 236.755 153.589 237.2 154.075C237.652 154.556 238.281 154.796 239.09 154.796C239.582 154.796 240.019 154.717 240.4 154.559C240.781 154.395 241.15 154.122 241.507 153.741L242.544 154.646C242.058 155.168 241.536 155.549 240.98 155.789C240.429 156.029 239.796 156.149 239.081 156.149ZM241.358 150.964C241.358 150.712 241.346 150.527 241.322 150.41C241.27 150.029 241.144 149.684 240.945 149.373C240.751 149.057 240.482 148.805 240.136 148.617C239.796 148.424 239.392 148.327 238.923 148.327C238.202 148.327 237.631 148.567 237.209 149.048C236.787 149.522 236.532 150.161 236.445 150.964H241.358ZM247.475 156.149C246.672 156.149 246.054 155.924 245.621 155.473C245.187 155.016 244.97 154.374 244.97 153.548V148.477H243.52V147.22H244.988V144.794L246.456 143.722V147.22H248.829V148.477H246.456V153.302C246.456 153.841 246.561 154.23 246.772 154.471C246.989 154.711 247.308 154.831 247.73 154.831C247.918 154.831 248.108 154.808 248.301 154.761C248.501 154.708 248.673 154.649 248.82 154.585L248.829 155.938C248.676 155.997 248.477 156.047 248.231 156.088C247.985 156.129 247.733 156.149 247.475 156.149ZM257.944 156.149C257.164 156.149 256.482 155.947 255.896 155.543C255.31 155.133 254.859 154.582 254.542 153.891C254.226 153.199 254.068 152.438 254.068 151.605C254.068 150.779 254.223 150.021 254.534 149.329C254.85 148.638 255.298 148.09 255.878 147.686C256.464 147.275 257.144 147.07 257.917 147.07C258.544 147.07 259.118 147.223 259.64 147.527C260.167 147.832 260.572 148.257 260.853 148.802V143.581H262.365V156H260.976L260.914 154.339C260.633 154.913 260.226 155.358 259.693 155.675C259.165 155.991 258.582 156.149 257.944 156.149ZM258.295 154.796C258.852 154.796 259.332 154.658 259.737 154.383C260.141 154.107 260.449 153.729 260.659 153.249C260.87 152.763 260.976 152.215 260.976 151.605C260.976 151.002 260.87 150.46 260.659 149.979C260.449 149.493 260.141 149.112 259.737 148.837C259.332 148.562 258.852 148.424 258.295 148.424C257.739 148.424 257.255 148.564 256.845 148.846C256.435 149.121 256.121 149.502 255.905 149.988C255.688 150.469 255.579 151.008 255.579 151.605C255.579 152.209 255.688 152.754 255.905 153.24C256.121 153.721 256.435 154.102 256.845 154.383C257.255 154.658 257.739 154.796 258.295 154.796ZM264.94 143.581H266.496V145.444H264.94V143.581ZM264.975 147.22H266.461V156H264.975V147.22ZM271.664 156.149C271.084 156.149 270.548 156.047 270.056 155.842C269.564 155.637 269.145 155.355 268.799 154.998C268.453 154.635 268.207 154.23 268.061 153.785L269.265 153.258C269.435 153.727 269.716 154.119 270.108 154.436C270.501 154.746 270.996 154.901 271.594 154.901C271.986 154.901 272.32 154.84 272.596 154.717C272.871 154.588 273.076 154.415 273.211 154.198C273.352 153.981 273.422 153.741 273.422 153.478C273.422 153.185 273.331 152.95 273.149 152.774C272.974 152.593 272.751 152.452 272.481 152.353C272.212 152.253 271.84 152.145 271.365 152.027C270.762 151.875 270.272 151.726 269.897 151.579C269.528 151.427 269.212 151.192 268.948 150.876C268.685 150.554 268.553 150.123 268.553 149.584C268.553 149.051 268.69 148.597 268.966 148.222C269.241 147.841 269.613 147.554 270.082 147.36C270.551 147.167 271.072 147.07 271.647 147.07C272.35 147.07 272.971 147.231 273.51 147.554C274.055 147.876 274.488 148.333 274.811 148.925L273.659 149.549C273.448 149.162 273.17 148.852 272.824 148.617C272.484 148.377 272.074 148.257 271.594 148.257C271.102 148.257 270.709 148.362 270.416 148.573C270.123 148.784 269.977 149.057 269.977 149.391C269.977 149.648 270.062 149.859 270.231 150.023C270.401 150.182 270.615 150.311 270.873 150.41C271.131 150.504 271.482 150.609 271.928 150.727C272.555 150.896 273.064 151.066 273.457 151.236C273.85 151.4 274.187 151.658 274.468 152.01C274.749 152.355 274.89 152.821 274.89 153.407C274.89 153.999 274.743 154.503 274.45 154.919C274.157 155.329 273.765 155.637 273.272 155.842C272.786 156.047 272.25 156.149 271.664 156.149ZM281.517 148.477H279.76V147.22H281.526V145.919C281.526 145.392 281.637 144.94 281.86 144.565C282.089 144.19 282.399 143.909 282.792 143.722C283.184 143.528 283.63 143.432 284.128 143.432C284.591 143.432 285.056 143.546 285.525 143.774L285.033 144.996C284.746 144.838 284.488 144.759 284.26 144.759C283.879 144.759 283.583 144.867 283.372 145.084C283.161 145.295 283.055 145.623 283.055 146.068V147.22H285.455V148.477H283.055V156H281.517V148.477ZM289.542 156.149C288.857 156.149 288.282 155.997 287.819 155.692C287.362 155.382 287.023 154.966 286.8 154.444C286.577 153.917 286.46 153.328 286.448 152.678V147.22H287.925V152.414C287.925 153.152 288.098 153.729 288.443 154.146C288.789 154.562 289.29 154.77 289.946 154.77C290.661 154.77 291.221 154.559 291.625 154.137C292.035 153.709 292.24 153.091 292.24 152.282V147.22H293.717V156H292.24V154.664C291.953 155.15 291.569 155.52 291.089 155.771C290.609 156.023 290.093 156.149 289.542 156.149ZM298.929 156.149C298.349 156.149 297.813 156.047 297.321 155.842C296.829 155.637 296.41 155.355 296.064 154.998C295.718 154.635 295.472 154.23 295.326 153.785L296.53 153.258C296.7 153.727 296.981 154.119 297.374 154.436C297.766 154.746 298.261 154.901 298.859 154.901C299.251 154.901 299.585 154.84 299.861 154.717C300.136 154.588 300.341 154.415 300.476 154.198C300.617 153.981 300.687 153.741 300.687 153.478C300.687 153.185 300.596 152.95 300.415 152.774C300.239 152.593 300.016 152.452 299.747 152.353C299.477 152.253 299.105 152.145 298.63 152.027C298.027 151.875 297.538 151.726 297.163 151.579C296.793 151.427 296.477 151.192 296.213 150.876C295.95 150.554 295.818 150.123 295.818 149.584C295.818 149.051 295.956 148.597 296.231 148.222C296.506 147.841 296.878 147.554 297.347 147.36C297.816 147.167 298.337 147.07 298.912 147.07C299.615 147.07 300.236 147.231 300.775 147.554C301.32 147.876 301.753 148.333 302.076 148.925L300.924 149.549C300.713 149.162 300.435 148.852 300.089 148.617C299.749 148.377 299.339 148.257 298.859 148.257C298.367 148.257 297.974 148.362 297.681 148.573C297.388 148.784 297.242 149.057 297.242 149.391C297.242 149.648 297.327 149.859 297.497 150.023C297.666 150.182 297.88 150.311 298.138 150.41C298.396 150.504 298.748 150.609 299.193 150.727C299.82 150.896 300.33 151.066 300.722 151.236C301.115 151.4 301.452 151.658 301.733 152.01C302.014 152.355 302.155 152.821 302.155 153.407C302.155 153.999 302.008 154.503 301.715 154.919C301.422 155.329 301.03 155.637 300.538 155.842C300.051 156.047 299.515 156.149 298.929 156.149ZM307.314 156.149C306.465 156.149 305.735 155.947 305.126 155.543C304.516 155.133 304.054 154.585 303.737 153.899C303.421 153.208 303.263 152.449 303.263 151.623C303.263 150.826 303.415 150.082 303.72 149.391C304.024 148.693 304.478 148.134 305.082 147.712C305.691 147.284 306.43 147.07 307.297 147.07C308.129 147.07 308.858 147.281 309.485 147.703C310.118 148.119 310.596 148.731 310.918 149.54L309.503 150.094C309.327 149.578 309.043 149.171 308.65 148.872C308.264 148.573 307.812 148.424 307.297 148.424C306.74 148.424 306.271 148.573 305.89 148.872C305.51 149.165 305.228 149.555 305.047 150.041C304.865 150.527 304.774 151.055 304.774 151.623C304.774 152.197 304.865 152.725 305.047 153.205C305.228 153.686 305.507 154.072 305.882 154.365C306.263 154.652 306.734 154.796 307.297 154.796C307.818 154.796 308.272 154.649 308.659 154.356C309.046 154.058 309.318 153.656 309.476 153.152L310.83 153.662C310.555 154.447 310.106 155.06 309.485 155.499C308.87 155.933 308.146 156.149 307.314 156.149ZM315.928 156.149C315.031 156.149 314.267 155.95 313.634 155.552C313.001 155.153 312.524 154.614 312.201 153.935C311.879 153.249 311.718 152.487 311.718 151.649C311.718 150.823 311.873 150.062 312.184 149.364C312.494 148.667 312.954 148.11 313.564 147.694C314.179 147.278 314.917 147.07 315.779 147.07C316.698 147.07 317.448 147.281 318.029 147.703C318.614 148.125 319.036 148.655 319.294 149.294C319.552 149.927 319.681 150.577 319.681 151.245C319.681 151.403 319.672 151.562 319.654 151.72C319.643 151.872 319.628 151.983 319.611 152.054H313.291C313.35 152.915 313.602 153.589 314.047 154.075C314.498 154.556 315.128 154.796 315.937 154.796C316.429 154.796 316.865 154.717 317.246 154.559C317.627 154.395 317.996 154.122 318.354 153.741L319.391 154.646C318.904 155.168 318.383 155.549 317.826 155.789C317.276 156.029 316.643 156.149 315.928 156.149ZM318.204 150.964C318.204 150.712 318.193 150.527 318.169 150.41C318.116 150.029 317.99 149.684 317.791 149.373C317.598 149.057 317.328 148.805 316.983 148.617C316.643 148.424 316.238 148.327 315.77 148.327C315.049 148.327 314.478 148.567 314.056 149.048C313.634 149.522 313.379 150.161 313.291 150.964H318.204ZM80.7653 185.639V180.418C80.4841 180.969 80.0856 181.396 79.57 181.701C79.0544 182 78.4831 182.149 77.8561 182.149C77.0768 182.149 76.403 181.947 75.8346 181.543C75.2721 181.139 74.8415 180.594 74.5427 179.908C74.2497 179.217 74.1032 178.452 74.1032 177.614C74.1032 176.776 74.2497 176.015 74.5427 175.329C74.8415 174.638 75.2721 174.09 75.8346 173.686C76.3971 173.275 77.0622 173.07 77.8298 173.07C78.4567 173.07 79.0309 173.223 79.5524 173.527C80.0798 173.832 80.4841 174.257 80.7653 174.802V173.22H82.3034V185.639H80.7653ZM78.1901 180.796C78.7468 180.796 79.2272 180.658 79.6315 180.383C80.0417 180.107 80.3552 179.729 80.572 179.249C80.7887 178.763 80.8971 178.218 80.8971 177.614C80.8971 177.005 80.7887 176.463 80.572 175.988C80.361 175.508 80.0505 175.133 79.6403 174.863C79.2302 174.588 78.7468 174.45 78.1901 174.45C77.6335 174.45 77.1589 174.588 76.7663 174.863C76.3796 175.139 76.0866 175.517 75.8874 175.997C75.694 176.472 75.5973 177.011 75.5973 177.614C75.5973 178.218 75.694 178.76 75.8874 179.24C76.0866 179.721 76.3796 180.102 76.7663 180.383C77.1589 180.658 77.6335 180.796 78.1901 180.796ZM87.7793 182.149C87.0938 182.149 86.5196 181.997 86.0567 181.692C85.5996 181.382 85.2598 180.966 85.0371 180.444C84.8145 179.917 84.6973 179.328 84.6856 178.678V173.22H86.1621V178.414C86.1621 179.152 86.335 179.729 86.6807 180.146C87.0264 180.562 87.5274 180.77 88.1836 180.77C88.8985 180.77 89.458 180.559 89.8623 180.137C90.2725 179.709 90.4776 179.091 90.4776 178.282V173.22H91.9541V182H90.4776V180.664C90.1905 181.15 89.8067 181.52 89.3262 181.771C88.8457 182.023 88.3301 182.149 87.7793 182.149ZM97.5971 173.07C98.3529 173.07 99.0004 173.217 99.5395 173.51C100.084 173.797 100.497 174.21 100.779 174.749C101.06 175.288 101.201 175.921 101.201 176.647V182H99.9613L99.8646 180.436C99.5658 180.986 99.141 181.411 98.5902 181.71C98.0395 182.003 97.4506 182.149 96.8236 182.149C96.226 182.149 95.6928 182.041 95.224 181.824C94.7611 181.602 94.3979 181.285 94.1342 180.875C93.8705 180.459 93.7387 179.967 93.7387 179.398C93.7387 178.525 94.0551 177.89 94.6879 177.491C95.3266 177.087 96.2172 176.885 97.3598 176.885H99.8471C99.8412 176.299 99.768 175.824 99.6273 175.461C99.4867 175.092 99.2523 174.819 98.9242 174.644C98.602 174.462 98.1654 174.371 97.6146 174.371C96.6127 174.371 95.8158 174.828 95.224 175.742L94.0814 174.916C94.5268 174.307 95.0307 173.847 95.5932 173.536C96.1557 173.226 96.8236 173.07 97.5971 173.07ZM97.1137 180.875C97.8285 180.875 98.4232 180.661 98.8979 180.233C99.3783 179.8 99.6947 179.237 99.8471 178.546V177.975H97.4477C96.727 177.975 96.182 178.106 95.8129 178.37C95.4496 178.634 95.268 178.994 95.268 179.451C95.268 179.885 95.4291 180.23 95.7514 180.488C96.0736 180.746 96.5277 180.875 97.1137 180.875ZM103.539 173.22H104.98V174.6C105.226 174.084 105.572 173.7 106.017 173.448C106.463 173.196 106.969 173.07 107.538 173.07C108.171 173.07 108.721 173.22 109.19 173.519C109.659 173.812 109.996 174.266 110.201 174.881C110.482 174.277 110.872 173.826 111.37 173.527C111.874 173.223 112.442 173.07 113.075 173.07C113.766 173.07 114.341 173.231 114.798 173.554C115.255 173.876 115.592 174.318 115.808 174.881C116.031 175.443 116.142 176.091 116.142 176.823V182H114.648V176.999C114.648 176.173 114.502 175.543 114.209 175.109C113.922 174.676 113.447 174.459 112.785 174.459C112.345 174.459 111.959 174.567 111.625 174.784C111.291 174.995 111.033 175.288 110.851 175.663C110.676 176.032 110.588 176.451 110.588 176.92V182H109.102V176.779C109.102 176.047 108.953 175.479 108.654 175.074C108.355 174.664 107.886 174.459 107.248 174.459C106.802 174.459 106.413 174.567 106.079 174.784C105.745 174.995 105.487 175.288 105.305 175.663C105.13 176.032 105.042 176.451 105.042 176.92V182H103.548L103.539 173.22ZM122.612 169.581H124.167V171.444H122.612V169.581ZM122.647 173.22H124.132V182H122.647V173.22ZM126.717 173.22H128.202V174.556C128.495 174.069 128.879 173.7 129.353 173.448C129.828 173.196 130.341 173.07 130.891 173.07C131.577 173.07 132.148 173.226 132.605 173.536C133.068 173.841 133.411 174.254 133.634 174.775C133.862 175.297 133.982 175.883 133.994 176.533V182H132.509V176.806C132.509 176.067 132.336 175.49 131.99 175.074C131.644 174.658 131.143 174.45 130.487 174.45C129.772 174.45 129.213 174.664 128.808 175.092C128.404 175.514 128.202 176.129 128.202 176.938V182H126.717V173.22ZM143.566 173.07C144.322 173.07 144.969 173.217 145.508 173.51C146.053 173.797 146.466 174.21 146.748 174.749C147.029 175.288 147.169 175.921 147.169 176.647V182H145.93L145.834 180.436C145.535 180.986 145.11 181.411 144.559 181.71C144.008 182.003 143.419 182.149 142.793 182.149C142.195 182.149 141.662 182.041 141.193 181.824C140.73 181.602 140.367 181.285 140.103 180.875C139.839 180.459 139.708 179.967 139.708 179.398C139.708 178.525 140.024 177.89 140.657 177.491C141.295 177.087 142.186 176.885 143.329 176.885H145.816C145.81 176.299 145.737 175.824 145.596 175.461C145.456 175.092 145.221 174.819 144.893 174.644C144.571 174.462 144.134 174.371 143.584 174.371C142.582 174.371 141.785 174.828 141.193 175.742L140.05 174.916C140.496 174.307 141 173.847 141.562 173.536C142.125 173.226 142.793 173.07 143.566 173.07ZM143.083 180.875C143.797 180.875 144.392 180.661 144.867 180.233C145.347 179.8 145.664 179.237 145.816 178.546V177.975H143.417C142.696 177.975 142.151 178.106 141.782 178.37C141.419 178.634 141.237 178.994 141.237 179.451C141.237 179.885 141.398 180.23 141.72 180.488C142.043 180.746 142.497 180.875 143.083 180.875ZM151.151 182.149C150.565 182.149 150.135 181.991 149.859 181.675C149.59 181.353 149.455 180.854 149.455 180.181V169.581H150.949V179.785C150.949 180.113 151.011 180.365 151.134 180.541C151.257 180.717 151.485 180.805 151.819 180.805C152.001 180.805 152.226 180.781 152.496 180.734L152.505 181.991C152.018 182.097 151.567 182.149 151.151 182.149ZM154.017 169.581H155.573V171.444H154.017V169.581ZM154.052 173.22H155.537V182H154.052V173.22ZM164.081 185.639V180.418C163.799 180.969 163.401 181.396 162.885 181.701C162.37 182 161.798 182.149 161.172 182.149C160.392 182.149 159.718 181.947 159.15 181.543C158.588 181.139 158.157 180.594 157.858 179.908C157.565 179.217 157.419 178.452 157.419 177.614C157.419 176.776 157.565 176.015 157.858 175.329C158.157 174.638 158.588 174.09 159.15 173.686C159.713 173.275 160.378 173.07 161.145 173.07C161.772 173.07 162.346 173.223 162.868 173.527C163.395 173.832 163.799 174.257 164.081 174.802V173.22H165.619V185.639H164.081ZM161.506 180.796C162.062 180.796 162.543 180.658 162.947 180.383C163.357 180.107 163.671 179.729 163.887 179.249C164.104 178.763 164.213 178.218 164.213 177.614C164.213 177.005 164.104 176.463 163.887 175.988C163.676 175.508 163.366 175.133 162.956 174.863C162.546 174.588 162.062 174.45 161.506 174.45C160.949 174.45 160.474 174.588 160.082 174.863C159.695 175.139 159.402 175.517 159.203 175.997C159.009 176.472 158.913 177.011 158.913 177.614C158.913 178.218 159.009 178.76 159.203 179.24C159.402 179.721 159.695 180.102 160.082 180.383C160.474 180.658 160.949 180.796 161.506 180.796ZM171.095 182.149C170.409 182.149 169.835 181.997 169.372 181.692C168.915 181.382 168.575 180.966 168.353 180.444C168.13 179.917 168.013 179.328 168.001 178.678V173.22H169.478V178.414C169.478 179.152 169.65 179.729 169.996 180.146C170.342 180.562 170.843 180.77 171.499 180.77C172.214 180.77 172.773 180.559 173.178 180.137C173.588 179.709 173.793 179.091 173.793 178.282V173.22H175.27V182H173.793V180.664C173.506 181.15 173.122 181.52 172.642 181.771C172.161 182.023 171.646 182.149 171.095 182.149ZM181.29 182.149C180.394 182.149 179.629 181.95 178.996 181.552C178.364 181.153 177.886 180.614 177.564 179.935C177.242 179.249 177.08 178.487 177.08 177.649C177.08 176.823 177.236 176.062 177.546 175.364C177.857 174.667 178.317 174.11 178.926 173.694C179.541 173.278 180.28 173.07 181.141 173.07C182.061 173.07 182.811 173.281 183.391 173.703C183.977 174.125 184.399 174.655 184.657 175.294C184.914 175.927 185.043 176.577 185.043 177.245C185.043 177.403 185.035 177.562 185.017 177.72C185.005 177.872 184.991 177.983 184.973 178.054H178.654C178.712 178.915 178.964 179.589 179.41 180.075C179.861 180.556 180.491 180.796 181.299 180.796C181.791 180.796 182.228 180.717 182.609 180.559C182.99 180.395 183.359 180.122 183.716 179.741L184.753 180.646C184.267 181.168 183.745 181.549 183.189 181.789C182.638 182.029 182.005 182.149 181.29 182.149ZM183.567 176.964C183.567 176.712 183.555 176.527 183.532 176.41C183.479 176.029 183.353 175.684 183.154 175.373C182.96 175.057 182.691 174.805 182.345 174.617C182.005 174.424 181.601 174.327 181.132 174.327C180.411 174.327 179.84 174.567 179.418 175.048C178.996 175.522 178.742 176.161 178.654 176.964H183.567ZM189.684 182.149C188.882 182.149 188.263 181.924 187.83 181.473C187.396 181.016 187.179 180.374 187.179 179.548V174.477H185.729V173.22H187.197V170.794L188.665 169.722V173.22H191.038V174.477H188.665V179.302C188.665 179.841 188.77 180.23 188.981 180.471C189.198 180.711 189.517 180.831 189.939 180.831C190.127 180.831 190.317 180.808 190.51 180.761C190.71 180.708 190.883 180.649 191.029 180.585L191.038 181.938C190.885 181.997 190.686 182.047 190.44 182.088C190.194 182.129 189.942 182.149 189.684 182.149ZM197.015 173.22H198.553V174.802C198.834 174.257 199.236 173.832 199.757 173.527C200.285 173.223 200.862 173.07 201.489 173.07C202.256 173.07 202.921 173.275 203.484 173.686C204.046 174.09 204.474 174.638 204.767 175.329C205.066 176.015 205.215 176.776 205.215 177.614C205.215 178.452 205.066 179.217 204.767 179.908C204.474 180.594 204.043 181.139 203.475 181.543C202.913 181.947 202.242 182.149 201.462 182.149C200.835 182.149 200.264 182 199.748 181.701C199.233 181.396 198.834 180.969 198.553 180.418V185.639H197.015V173.22ZM201.128 180.796C201.685 180.796 202.157 180.658 202.543 180.383C202.936 180.102 203.229 179.721 203.422 179.24C203.622 178.76 203.721 178.218 203.721 177.614C203.721 177.011 203.622 176.472 203.422 175.997C203.229 175.517 202.936 175.139 202.543 174.863C202.157 174.588 201.685 174.45 201.128 174.45C200.572 174.45 200.088 174.588 199.678 174.863C199.268 175.133 198.955 175.508 198.738 175.988C198.527 176.463 198.421 177.005 198.421 177.614C198.421 178.218 198.53 178.763 198.747 179.249C198.963 179.729 199.274 180.107 199.678 180.383C200.088 180.658 200.572 180.796 201.128 180.796ZM209.918 182.149C209.232 182.149 208.658 181.997 208.195 181.692C207.738 181.382 207.398 180.966 207.176 180.444C206.953 179.917 206.836 179.328 206.824 178.678V173.22H208.301V178.414C208.301 179.152 208.473 179.729 208.819 180.146C209.165 180.562 209.666 180.77 210.322 180.77C211.037 180.77 211.596 180.559 212.001 180.137C212.411 179.709 212.616 179.091 212.616 178.282V173.22H214.093V182H212.616V180.664C212.329 181.15 211.945 181.52 211.465 181.771C210.984 182.023 210.469 182.149 209.918 182.149ZM218.329 182.149C217.743 182.149 217.313 181.991 217.037 181.675C216.768 181.353 216.633 180.854 216.633 180.181V169.581H218.127V179.785C218.127 180.113 218.189 180.365 218.312 180.541C218.435 180.717 218.663 180.805 218.997 180.805C219.179 180.805 219.404 180.781 219.674 180.734L219.683 181.991C219.196 182.097 218.745 182.149 218.329 182.149ZM219.938 173.22H221.564L224.148 180.093L226.741 173.22H228.367L224.772 182H223.524L219.938 173.22ZM229.641 169.581H231.197V171.444H229.641V169.581ZM229.677 173.22H231.162V182H229.677V173.22ZM233.746 173.22H235.232V174.556C235.525 174.069 235.908 173.7 236.383 173.448C236.858 173.196 237.37 173.07 237.921 173.07C238.607 173.07 239.178 173.226 239.635 173.536C240.098 173.841 240.441 174.254 240.663 174.775C240.892 175.297 241.012 175.883 241.024 176.533V182H239.538V176.806C239.538 176.067 239.365 175.49 239.02 175.074C238.674 174.658 238.173 174.45 237.517 174.45C236.802 174.45 236.242 174.664 235.838 175.092C235.434 175.514 235.232 176.129 235.232 176.938V182H233.746V173.22ZM246.438 173.07C247.194 173.07 247.841 173.217 248.38 173.51C248.925 173.797 249.338 174.21 249.62 174.749C249.901 175.288 250.042 175.921 250.042 176.647V182H248.802L248.706 180.436C248.407 180.986 247.982 181.411 247.431 181.71C246.88 182.003 246.292 182.149 245.665 182.149C245.067 182.149 244.534 182.041 244.065 181.824C243.602 181.602 243.239 181.285 242.975 180.875C242.712 180.459 242.58 179.967 242.58 179.398C242.58 178.525 242.896 177.89 243.529 177.491C244.168 177.087 245.058 176.885 246.201 176.885H248.688C248.682 176.299 248.609 175.824 248.468 175.461C248.328 175.092 248.093 174.819 247.765 174.644C247.443 174.462 247.006 174.371 246.456 174.371C245.454 174.371 244.657 174.828 244.065 175.742L242.922 174.916C243.368 174.307 243.872 173.847 244.434 173.536C244.997 173.226 245.665 173.07 246.438 173.07ZM245.955 180.875C246.67 180.875 247.264 180.661 247.739 180.233C248.219 179.8 248.536 179.237 248.688 178.546V177.975H246.289C245.568 177.975 245.023 178.106 244.654 178.37C244.291 178.634 244.109 178.994 244.109 179.451C244.109 179.885 244.27 180.23 244.592 180.488C244.915 180.746 245.369 180.875 245.955 180.875ZM252.38 173.22H253.83V174.942C253.965 174.538 254.17 174.195 254.445 173.914C254.721 173.633 255.028 173.422 255.368 173.281C255.714 173.141 256.065 173.07 256.423 173.07C256.692 173.07 256.953 173.111 257.205 173.193C257.457 173.27 257.68 173.39 257.873 173.554L257.187 174.784C256.871 174.608 256.543 174.521 256.203 174.521C255.805 174.521 255.424 174.635 255.061 174.863C254.697 175.092 254.398 175.452 254.164 175.944C253.936 176.431 253.821 177.04 253.821 177.772V182H252.38V173.22ZM258.128 179.935H259.631V182H258.128V179.935Z" fill="black" fill-opacity="0.6"/>
</svg>
